<?xml version="1.0" encoding="utf-8"?>
<!-- Generator: Adobe Illustrator 19.0.0, SVG Export Plug-In . SVG Version: 6.00 Build 0)  -->
<svg version="1.1" xmlns="http://www.w3.org/2000/svg" xmlns:xlink="http://www.w3.org/1999/xlink" x="0px" y="0px"
	 viewBox="0 0 800 450" enable-background="new 0 0 800 450" xml:space="preserve">
<g id="Background">
	<rect y="-9.1" fill="#A4D7EA" width="800" height="468.1"/>
	<g>
		<path fill="#9AAF4E" stroke="#333333" stroke-miterlimit="10" d="M565.9,381.9c0,2.1,1.7,3.9,3.9,3.9h21c2.1,0,3.9-1.7,3.9-3.9
			c0-1.9-1.3-3.4-3-3.8c0,0,0-0.1,0-0.1c0-3.1-2.5-5.5-5.5-5.5c-0.1,0-0.2,0-0.3,0c0,0,0,0,0,0c0-3.1-2.5-5.5-5.5-5.5
			c-3.1,0-5.5,2.5-5.5,5.5c0,0,0,0,0,0c-0.1,0-0.2,0-0.3,0c-3.1,0-5.5,2.5-5.5,5.5c0,0,0,0.1,0,0.1
			C567.2,378.5,565.9,380,565.9,381.9z"/>
	</g>
</g>
<g id="Objects">
	<g>
		<g>
			<g>
				<g>
					<path fill="#F3F8FF" stroke="#333333" stroke-miterlimit="10" d="M670,256.4c-0.9-1.8-1.3-3.9-1.3-6c0-7.8,6.3-14.2,14.2-14.2
						c1.8,0,3.6,0.4,5.2,1c2.3-11.9,12.8-21,25.4-21c11.5,0,21.3,7.6,24.6,18c1.7-0.5,3.5-0.8,5.4-0.8c10,0,18.1,8.1,18.1,18.1
						c0,1.6-0.2,3.2-0.6,4.7c7.2,0.6,12.8,6.6,12.8,13.9c0,7.7-6.2,13.9-13.9,13.9h-87.1c-7.7,0-13.9-6.2-13.9-13.9
						C658.6,263.3,663.5,257.6,670,256.4z"/>
					<path fill="#FFFFFF" stroke="#333333" stroke-miterlimit="10" d="M346.9,71.7h-0.6c0.4-1.4,0.6-2.8,0.6-4.3
						c0-8.6-7.1-15.6-15.8-15.6c-1.3,0-2.5,0.2-3.6,0.4c0-0.4,0-0.8,0-1.2c0-14-11.5-25.3-25.7-25.3c-6.7,0-12.8,2.5-17.4,6.7
						c-4.8-5.9-12.1-9.6-20.4-9.6c-12.2,0-22.5,8.2-25.4,19.4c-1.9-0.4-3.9-0.7-5.9-0.7c-14.2,0-25.7,11.3-25.7,25.3
						c0,1.8,0.2,3.5,0.5,5.2c-7,1.4-12.3,7.5-12.3,14.8c0,8.3,6.9,15.1,15.3,15.1h136.3c8.5,0,15.3-6.8,15.3-15.1
						C362.3,78.5,355.4,71.7,346.9,71.7z"/>
					<path fill="#F3F8FF" stroke="#333333" stroke-miterlimit="10" d="M153.2,220h-0.5c0.3-1,0.5-2.1,0.5-3.2
						c0-6.4-5.3-11.7-11.8-11.7c-0.9,0-1.8,0.1-2.7,0.3c0-0.3,0-0.6,0-0.9c0-10.5-8.6-19-19.3-19c-5,0-9.6,1.9-13,5
						c-3.6-4.4-9.1-7.2-15.3-7.2c-9.1,0-16.8,6.2-19,14.5c-1.4-0.3-2.9-0.5-4.4-0.5c-10.6,0-19.3,8.5-19.3,19c0,1.3,0.1,2.6,0.4,3.9
						c-5.2,1-9.2,5.6-9.2,11.1c0,6.3,5.1,11.3,11.5,11.3h102.1c6.3,0,11.5-5.1,11.5-11.3C164.7,225,159.5,220,153.2,220z"/>
					<path fill="#FFFFFF" stroke="#333333" stroke-miterlimit="10" d="M494.1,132.4h0.6c-0.4-1.3-0.6-2.7-0.6-4.2
						c0-8.4,6.9-15.2,15.4-15.2c1.2,0,2.4,0.2,3.6,0.4c0-0.4,0-0.8,0-1.1c0-13.7,11.2-24.7,25.1-24.7c6.5,0,12.5,2.5,17,6.5
						c4.7-5.7,11.9-9.4,19.9-9.4c11.9,0,21.9,8,24.8,18.9c1.9-0.4,3.8-0.7,5.8-0.7c13.9,0,25.1,11.1,25.1,24.7
						c0,1.7-0.2,3.4-0.5,5.1c6.8,1.4,12,7.3,12,14.5c0,8.1-6.7,14.8-15,14.8h-133c-8.3,0-15-6.6-15-14.8
						C479.1,139,485.8,132.4,494.1,132.4z"/>
					<path fill="#F3F8FF" stroke="#333333" stroke-miterlimit="10" d="M350.4,188.6c-0.9-1.8-1.3-3.9-1.3-6
						c0-7.8,6.3-14.2,14.2-14.2c1.8,0,3.6,0.4,5.2,1c2.3-11.9,12.8-21,25.4-21c11.5,0,21.3,7.6,24.6,18c1.7-0.5,3.5-0.8,5.4-0.8
						c10,0,18.1,8.1,18.1,18.1c0,1.6-0.2,3.2-0.6,4.7c7.2,0.6,12.8,6.6,12.8,13.9c0,7.7-6.2,13.9-13.9,13.9H353
						c-7.7,0-13.9-6.2-13.9-13.9C339.1,195.5,344,189.8,350.4,188.6z"/>
				</g>
				<circle fill="#FFFFC2" stroke="#333333" stroke-miterlimit="10" cx="708.8" cy="74.8" r="40.5"/>
			</g>
		</g>
		<g>
			<g>
				<path fill="#5B4545" d="M145.9,200.2c2.1-5.1,5.8-5.2,8.2-0.2l86.3,177.2c2.4,4.9-0.1,9.1-5.6,9.3l-69.3,2
					c-5.5,0.2-14.5,0.4-20,0.6l-69.3,2c-5.5,0.2-8.3-3.9-6.1-8.9L145.9,200.2z"/>
				<path fill="none" stroke="#333333" stroke-miterlimit="10" d="M145.9,200.2c2.1-5.1,5.8-5.2,8.2-0.2l86.3,177.2
					c2.4,4.9-0.1,9.1-5.6,9.3l-69.3,2c-5.5,0.2-14.5,0.4-20,0.6l-69.3,2c-5.5,0.2-8.3-3.9-6.1-8.9L145.9,200.2z"/>
			</g>
			<g>
				<g>
					<path fill="#FFFFFF" d="M145.7,198.6c2-5.1,5.7-5.3,8.2-0.3l26.9,54.1c2.4,4.9,1.7,5.4-1.8,1.1l-16.8-21.1
						c-3.4-4.3-6.9-3.4-7.9,2l-2.1,12.7c-0.9,5.4-3.5,5.8-5.9,0.8l-1-2.1c-2.3-5-7-5.6-10.5-1.3l-8.8,11c-3.4,4.3-4.6,3.6-2.5-1.5
						L145.7,198.6z"/>
					<path fill="none" stroke="#333333" stroke-miterlimit="10" d="M145.7,198.6c2-5.1,5.7-5.3,8.2-0.3l26.9,54.1
						c2.4,4.9,1.7,5.4-1.8,1.1l-16.8-21.1c-3.4-4.3-6.9-3.4-7.9,2l-2.1,12.7c-0.9,5.4-3.5,5.8-5.9,0.8l-1-2.1c-2.3-5-7-5.6-10.5-1.3
						l-8.8,11c-3.4,4.3-4.6,3.6-2.5-1.5L145.7,198.6z"/>
				</g>
				<path fill="#FFFFFF" stroke="#333333" stroke-miterlimit="10" d="M122.5,258.8l0,0.4L122.5,258.8L122.5,258.8z"/>
			</g>
			<g>
				<path fill="#634B4B" d="M251.1,88.1c2.2-5,5.9-5.1,8.2-0.1l133.1,288.8c2.3,5-0.3,9.1-5.8,9.2l-118.4,1.2
					c-5.5,0.1-14.5,0.1-20,0.2l-118.4,1.2c-5.5,0.1-8.2-4-6-9.1L251.1,88.1z"/>
				<path fill="none" stroke="#333333" stroke-miterlimit="10" d="M251.1,88.1c2.2-5,5.9-5.1,8.2-0.1l133.1,288.8
					c2.3,5-0.3,9.1-5.8,9.2l-118.4,1.2c-5.5,0.1-14.5,0.1-20,0.2l-118.4,1.2c-5.5,0.1-8.2-4-6-9.1L251.1,88.1z"/>
			</g>
			<g>
				<path fill="#705A5A" d="M353.9,246c2.8-4.7,7.3-4.7,10,0.1l32.4,57.5c2.7,4.8,7.1,12.6,9.8,17.4l32.4,57.5
					c2.7,4.8,0.4,8.7-5.1,8.6l-66-0.7c-5.5-0.1-14.5-0.2-20-0.2l-66-0.7c-5.5-0.1-7.7-4-4.9-8.7l33.6-56.8
					c2.8-4.7,7.4-12.5,10.2-17.2L353.9,246z"/>
				<path fill="none" stroke="#333333" stroke-miterlimit="10" d="M353.9,246c2.8-4.7,7.3-4.7,10,0.1l32.4,57.5
					c2.7,4.8,7.1,12.6,9.8,17.4l32.4,57.5c2.7,4.8,0.4,8.7-5.1,8.6l-66-0.7c-5.5-0.1-14.5-0.2-20-0.2l-66-0.7
					c-5.5-0.1-7.7-4-4.9-8.7l33.6-56.8c2.8-4.7,7.4-12.5,10.2-17.2L353.9,246z"/>
			</g>
			<g>
				<path fill="#756464" d="M79.3,263.9c2.2-5.1,6.1-5.2,8.7-0.4l66.1,121.7c2.6,4.8,0.3,9-5.2,9.3l-49,2.3
					c-5.5,0.3-14.5,0.7-20,0.9l-49,2.3c-5.5,0.3-8.2-3.7-6.1-8.7L79.3,263.9z"/>
				<path fill="none" stroke="#333333" stroke-miterlimit="10" d="M79.3,263.9c2.2-5.1,6.1-5.2,8.7-0.4l66.1,121.7
					c2.6,4.8,0.3,9-5.2,9.3l-49,2.3c-5.5,0.3-14.5,0.7-20,0.9l-49,2.3c-5.5,0.3-8.2-3.7-6.1-8.7L79.3,263.9z"/>
			</g>
			<g>
				<g>
					<path fill="#FFFFFF" d="M78.7,262.6c2.3-5,6.4-5.2,9.2-0.4l6.4,11.2c2.7,4.8,3,6.6,0.6,4c-2.4-2.6-4.8-2.9-5.3-0.8
						c-0.5,2.2-2.1,3.1-3.5,2.1s-3.3-1.2-4.3-0.4c-1,0.8-2-0.2-2.2-2.2c-0.2-2-2.6-1.3-5.3,1.6c-2.7,2.9-3,1.2-0.7-3.8L78.7,262.6z"
						/>
					<path fill="none" stroke="#333333" stroke-miterlimit="10" d="M78.7,262.6c2.3-5,6.4-5.2,9.2-0.4l6.4,11.2c2.7,4.8,3,6.6,0.6,4
						c-2.4-2.6-4.8-2.9-5.3-0.8c-0.5,2.2-2.1,3.1-3.5,2.1s-3.3-1.2-4.3-0.4c-1,0.8-2-0.2-2.2-2.2c-0.2-2-2.6-1.3-5.3,1.6
						c-2.7,2.9-3,1.2-0.7-3.8L78.7,262.6z"/>
				</g>
				<path fill="#FFFFFF" stroke="#333333" stroke-miterlimit="10" d="M70.5,281.2l0,0.2L70.5,281.2L70.5,281.2z"/>
			</g>
			<g>
				<g>
					<path fill="#FFFFFF" d="M251,87.6c2.2-5,5.9-5.1,8.2-0.1l32.7,71.1c2.3,5,1.5,5.5-1.8,1.1l-22.4-30c-3.3-4.4-6.8-3.6-7.9,1.8
						l-3.9,19.8c-1.1,5.4-3.7,5.7-5.9,0.6l-2.9-6.7c-2.2-5.1-6.9-5.8-10.4-1.6l-14,16.5c-3.6,4.2-4.7,3.5-2.5-1.6L251,87.6z"/>
				</g>
				<path fill="#FFFFFF" stroke="#333333" stroke-miterlimit="10" d="M219.5,163.3c-0.3,0-0.6-0.1-0.7-0.4c-0.3-0.4-0.5-1.3,1-4.6
					l30.8-70.9c1.2-2.7,2.8-4.1,4.5-4.1c1.7,0,3.4,1.4,4.5,4l32.7,71.1c1.7,3.7,1.4,4.2,1.2,4.5c-0.1,0.2-0.3,0.3-0.6,0.3
					c-0.3,0-0.9,0-3.3-3.2l-22.4-30c-1.3-1.7-2.6-2.6-3.8-2.6c-1.5,0-2.7,1.5-3.2,4.2l-3.9,19.8c-0.8,4-2.3,4.6-3.2,4.6
					c-1.3,0-2.6-1.4-3.7-3.9l-2.9-6.7c-1.1-2.5-2.9-4-4.9-4c-1.6,0-3.2,0.9-4.6,2.6l-14,16.5C220.9,163,220,163.3,219.5,163.3z"/>
			</g>
			<g>
				<defs>
					<rect id="SVGID_1_" x="0" y="225.7" width="800" height="192.5"/>
				</defs>
				<clipPath id="SVGID_2_">
					<use xlink:href="#SVGID_1_"  overflow="visible"/>
				</clipPath>
				<g clip-path="url(#SVGID_2_)">
					<path fill="#92B244" stroke="#333333" stroke-miterlimit="10" d="M745,382.8c0-0.1,0-0.1,0-0.2c0.3-6.6-4.8-12.2-11.4-12.4
						c-0.2,0-0.4,0-0.6,0c0,0,0,0,0,0c0.3-6.6-4.8-12.2-11.4-12.5c-6.6-0.3-12.2,4.8-12.5,11.4c0,0,0,0,0,0c-0.2,0-0.4,0-0.6-0.1
						c-6.6-0.3-12.2,4.8-12.5,11.4c0,0.1,0,0.1,0,0.2c-3.8,0.6-6.8,3.9-6.9,7.8c-0.2,4.6,3.4,8.5,8,8.7l45.3,2.1
						c4.6,0.2,8.5-3.4,8.7-8C751.4,387.2,748.7,383.8,745,382.8z"/>
				</g>
				<g clip-path="url(#SVGID_2_)">
					<path fill="#92B244" stroke="#333333" stroke-miterlimit="10" d="M810.2,385c0-0.1,0-0.1,0-0.2c0.3-6.6-4.8-12.2-11.4-12.4
						c-0.2,0-0.4,0-0.6,0c0,0,0,0,0,0c0.3-6.6-4.8-12.2-11.4-12.5c-6.6-0.3-12.2,4.8-12.5,11.4c0,0,0,0,0,0c-0.2,0-0.4,0-0.6-0.1
						c-6.6-0.3-12.2,4.8-12.5,11.4c0,0.1,0,0.1,0,0.2c-3.8,0.6-6.8,3.9-6.9,7.8c-0.2,4.6,3.4,8.5,8,8.7l45.3,2.1
						c4.6,0.2,8.5-3.4,8.7-8C816.6,389.5,814,386,810.2,385z"/>
				</g>
				<g clip-path="url(#SVGID_2_)">
					<g>
						<circle fill="#B4D873" stroke="#333333" stroke-miterlimit="10" cx="566" cy="332.1" r="33.5"/>
						<path fill="#5B4545" stroke="#333333" stroke-miterlimit="10" d="M585.7,340.9c-0.4-0.4-0.9-0.6-1.4-0.6c-0.5,0-1,0.2-1.4,0.6
							L568,355.6v-22.9c0-1.1-0.9-2-2-2c-1.1,0-2,0.9-2,2v22.9l-14.9-14.6c-0.4-0.4-0.9-0.6-1.4-0.6c-0.5,0-1,0.2-1.4,0.6
							c-0.8,0.8-0.8,2.1,0,2.8l17.1,16.8c-0.1,0.6,0.6,1.9,0.6,1.9v29.8c0,1.1,0.9,2,2,2c1.1,0,2-0.9,2-2v-29.8c0,0,0.8-1.3,0.6-1.9
							l17.1-16.8C586.5,343,586.5,341.7,585.7,340.9z"/>
					</g>
				</g>
				<g clip-path="url(#SVGID_2_)">
					<g>
						<circle fill="#B4D873" stroke="#333333" stroke-miterlimit="10" cx="682" cy="335.6" r="33.5"/>
						<path fill="#5B4545" stroke="#333333" stroke-miterlimit="10" d="M701.7,344.4c-0.4-0.4-0.9-0.6-1.4-0.6c-0.5,0-1,0.2-1.4,0.6
							L684,359.1v-22.9c0-1.1-0.9-2-2-2c-1.1,0-2,0.9-2,2v22.9l-14.9-14.6c-0.4-0.4-0.9-0.6-1.4-0.6c-0.5,0-1,0.2-1.4,0.6
							c-0.8,0.8-0.8,2.1,0,2.8l17.1,16.8c-0.1,0.6,0.6,1.9,0.6,1.9v29.8c0,1.1,0.9,2,2,2c1.1,0,2-0.9,2-2V366c0,0,0.8-1.3,0.6-1.9
							l17.1-16.8C702.5,346.5,702.5,345.2,701.7,344.4z"/>
					</g>
				</g>
				<g clip-path="url(#SVGID_2_)">
					<g>
						<circle fill="#CCED98" stroke="#333333" stroke-miterlimit="10" cx="785.8" cy="311" r="23.3"/>
						<circle fill="#CCED98" stroke="#333333" stroke-miterlimit="10" cx="717.7" cy="311" r="23.3"/>
					</g>
					<circle fill="#B4D873" stroke="#333333" stroke-miterlimit="10" cx="751.7" cy="284.4" r="29.9"/>
					<path fill="#634B4B" stroke="#333333" stroke-miterlimit="10" d="M787.3,312.6c-0.7-0.7-1.6-1.1-2.6-1.1c-1,0-1.9,0.4-2.5,1
						l-26.9,26.4v-41.4c0-2-1.6-3.6-3.6-3.6c-2,0-3.6,1.6-3.6,3.6v41.4l-26.9-26.4c-0.7-0.7-1.6-1-2.5-1c-1,0-1.9,0.4-2.6,1.1
						c-1.4,1.4-1.4,3.7,0,5.1L747,348c-0.2,1.1,1.1,3.4,1.1,3.4v53.7c0,2,1.6,3.6,3.6,3.6c2,0,3.6-1.6,3.6-3.6v-53.7
						c0.1,0,1.4-2.3,1.1-3.4l30.8-30.3C788.7,316.3,788.7,314,787.3,312.6z"/>
				</g>
				<g clip-path="url(#SVGID_2_)">
					<g>
						<circle fill="#A0BA60" stroke="#333333" stroke-miterlimit="10" cx="559.4" cy="307.2" r="23.3"/>
						<circle fill="#A0BA60" stroke="#333333" stroke-miterlimit="10" cx="491.3" cy="307.2" r="23.3"/>
					</g>
					<circle fill="#CCED98" stroke="#333333" stroke-miterlimit="10" cx="525.3" cy="280.7" r="29.9"/>
					<path fill="#634B4B" stroke="#333333" stroke-miterlimit="10" d="M560.9,308.8c-0.7-0.7-1.6-1.1-2.6-1.1c-1,0-1.9,0.4-2.5,1
						l-26.9,26.4v-41.4c0-2-1.6-3.6-3.6-3.6c-2,0-3.6,1.6-3.6,3.6v41.4l-26.9-26.4c-0.7-0.7-1.6-1-2.5-1c-1,0-1.9,0.4-2.6,1.1
						c-1.4,1.4-1.4,3.7,0,5.1l30.8,30.3c-0.2,1.1,1.1,3.4,1.1,3.4v53.7c0,2,1.6,3.6,3.6,3.6c2,0,3.6-1.6,3.6-3.6v-53.7
						c0.1,0,1.4-2.3,1.1-3.4l30.8-30.3C562.3,312.5,562.3,310.2,560.9,308.8z"/>
				</g>
				<g clip-path="url(#SVGID_2_)">
					<path fill="#634B4B" stroke="#333333" stroke-miterlimit="10" d="M450.7,414.4c0,1.9-1.5,3.4-3.4,3.4l0,0
						c-1.9,0-3.4-1.5-3.4-3.4v-59.3c0-1.9,1.5-3.4,3.4-3.4l0,0c1.9,0,3.4,1.5,3.4,3.4V414.4z"/>
					<g>
						<g>
							<path fill="#A0BA60" d="M457.3,367.6c-5.5,0-14.5,0-20,0h-24.6c-5.5,0-7.6-3.8-4.6-8.4l11.5-17.7c3-4.6,7.9-12.2,10.9-16.8
								l11.5-17.7c3-4.6,7.9-4.6,10.9,0l11.5,17.7c3,4.6,7.9,12.2,10.9,16.8l11.5,17.7c3,4.6,0.9,8.4-4.6,8.4H457.3z"/>
							<path fill="none" stroke="#333333" stroke-miterlimit="10" d="M457.3,367.6c-5.5,0-14.5,0-20,0h-24.6c-5.5,0-7.6-3.8-4.6-8.4
								l11.5-17.7c3-4.6,7.9-12.2,10.9-16.8l11.5-17.7c3-4.6,7.9-4.6,10.9,0l11.5,17.7c3,4.6,7.9,12.2,10.9,16.8l11.5,17.7
								c3,4.6,0.9,8.4-4.6,8.4H457.3z"/>
						</g>
						<g>
							<path fill="#A9C965" d="M457.3,338.7c-5.5,0-14.5,0-20,0h-17.7c-5.5,0-7.6-3.8-4.6-8.4l8-12.4c3-4.6,7.9-12.2,10.9-16.8
								l8-12.4c3-4.6,7.9-4.6,10.9,0l8,12.4c3,4.6,7.9,12.2,10.9,16.8l8,12.4c3,4.6,0.9,8.4-4.6,8.4H457.3z"/>
							<path fill="none" stroke="#333333" stroke-miterlimit="10" d="M457.3,338.7c-5.5,0-14.5,0-20,0h-17.7c-5.5,0-7.6-3.8-4.6-8.4
								l8-12.4c3-4.6,7.9-12.2,10.9-16.8l8-12.4c3-4.6,7.9-4.6,10.9,0l8,12.4c3,4.6,7.9,12.2,10.9,16.8l8,12.4
								c3,4.6,0.9,8.4-4.6,8.4H457.3z"/>
						</g>
						<g>
							<path fill="#B4D873" d="M457.3,313.9c-5.5,0-14.5,0-20,0h-16.2c-5.5,0-7.6-3.8-4.6-8.4l7.2-11.2c3-4.6,7.9-12.2,10.9-16.8
								l7.2-11.2c3-4.6,7.9-4.6,10.9,0l7.2,11.2c3,4.6,7.9,12.2,10.9,16.8l7.2,11.2c3,4.6,0.9,8.4-4.6,8.4H457.3z"/>
							<path fill="none" stroke="#333333" stroke-miterlimit="10" d="M457.3,313.9c-5.5,0-14.5,0-20,0h-16.2c-5.5,0-7.6-3.8-4.6-8.4
								l7.2-11.2c3-4.6,7.9-12.2,10.9-16.8l7.2-11.2c3-4.6,7.9-4.6,10.9,0l7.2,11.2c3,4.6,7.9,12.2,10.9,16.8l7.2,11.2
								c3,4.6,0.9,8.4-4.6,8.4H457.3z"/>
						</g>
					</g>
				</g>
				<g clip-path="url(#SVGID_2_)">
					<path fill="#634B4B" stroke="#333333" stroke-miterlimit="10" d="M629.7,414.4c0,1.9-1.5,3.4-3.4,3.4l0,0
						c-1.9,0-3.4-1.5-3.4-3.4v-59.3c0-1.9,1.5-3.4,3.4-3.4l0,0c1.9,0,3.4,1.5,3.4,3.4V414.4z"/>
					<g>
						<g>
							<path fill="#A0BA60" d="M636.3,367.6c-5.5,0-14.5,0-20,0h-24.6c-5.5,0-7.6-3.8-4.6-8.4l11.5-17.7c3-4.6,7.9-12.2,10.9-16.8
								l11.5-17.7c3-4.6,7.9-4.6,10.9,0l11.5,17.7c3,4.6,7.9,12.2,10.9,16.8l11.5,17.7c3,4.6,0.9,8.4-4.6,8.4H636.3z"/>
							<path fill="none" stroke="#333333" stroke-miterlimit="10" d="M636.3,367.6c-5.5,0-14.5,0-20,0h-24.6c-5.5,0-7.6-3.8-4.6-8.4
								l11.5-17.7c3-4.6,7.9-12.2,10.9-16.8l11.5-17.7c3-4.6,7.9-4.6,10.9,0l11.5,17.7c3,4.6,7.9,12.2,10.9,16.8l11.5,17.7
								c3,4.6,0.9,8.4-4.6,8.4H636.3z"/>
						</g>
						<g>
							<path fill="#A9C965" d="M636.3,338.7c-5.5,0-14.5,0-20,0h-17.7c-5.5,0-7.6-3.8-4.6-8.4l8-12.4c3-4.6,7.9-12.2,10.9-16.8
								l8-12.4c3-4.6,7.9-4.6,10.9,0l8,12.4c3,4.6,7.9,12.2,10.9,16.8l8,12.4c3,4.6,0.9,8.4-4.6,8.4H636.3z"/>
							<path fill="none" stroke="#333333" stroke-miterlimit="10" d="M636.3,338.7c-5.5,0-14.5,0-20,0h-17.7c-5.5,0-7.6-3.8-4.6-8.4
								l8-12.4c3-4.6,7.9-12.2,10.9-16.8l8-12.4c3-4.6,7.9-4.6,10.9,0l8,12.4c3,4.6,7.9,12.2,10.9,16.8l8,12.4
								c3,4.6,0.9,8.4-4.6,8.4H636.3z"/>
						</g>
						<g>
							<path fill="#B4D873" d="M636.3,313.9c-5.5,0-14.5,0-20,0h-16.2c-5.5,0-7.6-3.8-4.6-8.4l7.2-11.2c3-4.6,7.9-12.2,10.9-16.8
								l7.2-11.2c3-4.6,7.9-4.6,10.9,0l7.2,11.2c3,4.6,7.9,12.2,10.9,16.8l7.2,11.2c3,4.6,0.9,8.4-4.6,8.4H636.3z"/>
							<path fill="none" stroke="#333333" stroke-miterlimit="10" d="M636.3,313.9c-5.5,0-14.5,0-20,0h-16.2c-5.5,0-7.6-3.8-4.6-8.4
								l7.2-11.2c3-4.6,7.9-12.2,10.9-16.8l7.2-11.2c3-4.6,7.9-4.6,10.9,0l7.2,11.2c3,4.6,7.9,12.2,10.9,16.8l7.2,11.2
								c3,4.6,0.9,8.4-4.6,8.4H636.3z"/>
						</g>
					</g>
				</g>
				<g clip-path="url(#SVGID_2_)">
					<path fill="#634B4B" stroke="#333333" stroke-miterlimit="10" d="M24.7,419.8c0,1.7-1.4,3-3,3l0,0c-1.7,0-3-1.4-3-3v-52.6
						c0-1.7,1.4-3,3-3l0,0c1.7,0,3,1.4,3,3V419.8z"/>
					<g>
						<g>
							<path fill="#A0BA60" d="M31.7,378.2c-5.5,0-14.5,0-20,0H-8c-5.5,0-7.6-3.8-4.6-8.4l9-13.9c3-4.6,7.9-12.2,10.9-16.8l9-13.9
								c3-4.6,7.9-4.6,10.9,0l9,13.9c3,4.6,7.9,12.2,10.9,16.8l9,13.9c3,4.6,0.9,8.4-4.6,8.4H31.7z"/>
							<path fill="none" stroke="#333333" stroke-miterlimit="10" d="M31.7,378.2c-5.5,0-14.5,0-20,0H-8c-5.5,0-7.6-3.8-4.6-8.4
								l9-13.9c3-4.6,7.9-12.2,10.9-16.8l9-13.9c3-4.6,7.9-4.6,10.9,0l9,13.9c3,4.6,7.9,12.2,10.9,16.8l9,13.9
								c3,4.6,0.9,8.4-4.6,8.4H31.7z"/>
						</g>
						<g>
							<path fill="#A9C965" d="M31.7,352.5c-5.5,0-14.5,0-20,0H-1.8c-5.5,0-7.6-3.8-4.6-8.4l5.9-9.1c3-4.6,7.9-12.2,10.9-16.8
								l5.9-9.1c3-4.6,7.9-4.6,10.9,0l5.9,9.1c3,4.6,7.9,12.2,10.9,16.8l5.9,9.1c3,4.6,0.9,8.4-4.6,8.4H31.7z"/>
							<path fill="none" stroke="#333333" stroke-miterlimit="10" d="M31.7,352.5c-5.5,0-14.5,0-20,0H-1.8c-5.5,0-7.6-3.8-4.6-8.4
								l5.9-9.1c3-4.6,7.9-12.2,10.9-16.8l5.9-9.1c3-4.6,7.9-4.6,10.9,0l5.9,9.1c3,4.6,7.9,12.2,10.9,16.8l5.9,9.1
								c3,4.6,0.9,8.4-4.6,8.4H31.7z"/>
						</g>
						<g>
							<path fill="#B4D873" d="M31.7,330.6c-5.5,0-14.5,0-20,0H-0.5c-5.5,0-7.6-3.8-4.6-8.4l5.2-8.1c3-4.6,7.9-12.2,10.9-16.8
								l5.2-8.1c3-4.6,7.9-4.6,10.9,0l5.2,8.1c3,4.6,7.9,12.2,10.9,16.8l5.2,8.1c3,4.6,0.9,8.4-4.6,8.4H31.7z"/>
							<path fill="none" stroke="#333333" stroke-miterlimit="10" d="M31.7,330.6c-5.5,0-14.5,0-20,0H-0.5c-5.5,0-7.6-3.8-4.6-8.4
								l5.2-8.1c3-4.6,7.9-12.2,10.9-16.8l5.2-8.1c3-4.6,7.9-4.6,10.9,0l5.2,8.1c3,4.6,7.9,12.2,10.9,16.8l5.2,8.1
								c3,4.6,0.9,8.4-4.6,8.4H31.7z"/>
						</g>
					</g>
				</g>
			</g>
			<g>
				<g>
					<path fill="#B4D873" stroke="#333333" stroke-miterlimit="10" d="M0,391.3c0,0,250.3-24.7,800,0.2v66.9H0V391.3z"/>
					<path fill="#B4D873" d="M0,392c0,0,250.3-24.7,800,0.2v66.9H0V392z"/>
					<g>
						<g>
							<ellipse fill="#CECDB6" stroke="#333333" stroke-miterlimit="10" cx="81.2" cy="422.5" rx="6.2" ry="4.1"/>
							<ellipse fill="#CECDB6" stroke="#333333" stroke-miterlimit="10" cx="95.9" cy="418.6" rx="3.5" ry="2.3"/>
							<ellipse fill="#CECDB6" stroke="#333333" stroke-miterlimit="10" cx="66.3" cy="423.9" rx="3" ry="2"/>
						</g>
						<g>
							<ellipse fill="#CECDB6" stroke="#333333" stroke-miterlimit="10" cx="352.8" cy="426.4" rx="5.5" ry="3.7"/>
							<ellipse fill="#CECDB6" stroke="#333333" stroke-miterlimit="10" cx="340.9" cy="420" rx="3.5" ry="2.3"/>
							<ellipse fill="#CECDB6" stroke="#333333" stroke-miterlimit="10" cx="364.7" cy="419.3" rx="3" ry="2"/>
						</g>
						<g>
							<ellipse fill="#CECDB6" stroke="#333333" stroke-miterlimit="10" cx="720" cy="423.4" rx="3.7" ry="2.4"/>
							<ellipse fill="#CECDB6" stroke="#333333" stroke-miterlimit="10" cx="709" cy="426.8" rx="2.6" ry="1.7"/>
							<ellipse fill="#CECDB6" stroke="#333333" stroke-miterlimit="10" cx="720" cy="430.9" rx="1.8" ry="1.2"/>
							<ellipse fill="#CECDB6" stroke="#333333" stroke-miterlimit="10" cx="734" cy="424.4" rx="3" ry="2"/>
						</g>
					</g>
				</g>
				<g>
					<polygon fill="#BB3333" stroke="#333333" stroke-miterlimit="10" points="249.9,345.6 196.5,346.8 191,383.3 256.9,381.9 					
						"/>
					<polygon fill="#BB3333" stroke="#333333" stroke-miterlimit="10" points="196.5,346.8 173.3,383.7 191,383.3 					"/>
					<polygon fill="#CFD1D2" stroke="#333333" stroke-miterlimit="10" points="196.5,346.8 188,383.4 191,383.3 					"/>
					<path fill="#FFFFFF" stroke="#333333" stroke-miterlimit="10" d="M191,383.3c0,0,0-0.6,0.1-1.6c0.1-1,0.2-2.4,0.4-4.2
						c0.2-1.7,0.4-3.7,0.7-5.9c0.1-1.1,0.3-2.2,0.4-3.3c0.2-1.1,0.3-2.3,0.5-3.4c0.2-1.1,0.4-2.3,0.5-3.4c0.2-1.1,0.4-2.2,0.5-3.3
						c0.4-2.1,0.7-4.1,1-5.8c0.3-1.7,0.6-3.1,0.8-4.1c0.2-1,0.3-1.6,0.3-1.6s0,0.6-0.1,1.6c-0.1,1-0.2,2.4-0.4,4.2
						c-0.2,1.7-0.4,3.7-0.7,5.9c-0.1,1.1-0.3,2.2-0.4,3.3c-0.2,1.1-0.3,2.3-0.5,3.4c-0.2,1.1-0.4,2.3-0.5,3.4
						c-0.2,1.1-0.4,2.2-0.5,3.3c-0.4,2.1-0.7,4.1-1,5.8c-0.3,1.7-0.6,3.1-0.8,4.1C191.2,382.8,191,383.3,191,383.3z"/>
					
						<rect x="189.9" y="381.5" transform="matrix(0.9998 -2.191104e-02 2.191104e-02 0.9998 -8.3482 4.2748)" fill="#6D1F1F" stroke="#333333" stroke-miterlimit="10" width="2.1" height="3.2"/>
					
						<rect x="191.2" y="373.8" transform="matrix(0.9998 -2.191104e-02 2.191104e-02 0.9998 -8.1659 4.3012)" fill="#6D1F1F" stroke="#333333" stroke-miterlimit="10" width="2.1" height="2"/>
					<polygon fill="#BB3333" stroke="#333333" stroke-miterlimit="10" points="249.8,345.6 274.6,381.5 256.9,381.9 					"/>
					<polygon fill="#CFD1D2" stroke="#333333" stroke-miterlimit="10" points="249.8,345.6 259.9,381.8 256.9,381.9 					"/>
					<path fill="#FFFFFF" stroke="#333333" stroke-miterlimit="10" d="M256.9,381.9c0,0-0.1-0.6-0.2-1.6c-0.2-1-0.3-2.4-0.6-4.1
						c-0.3-1.7-0.6-3.7-1-5.8c-0.2-1.1-0.4-2.2-0.6-3.3c-0.2-1.1-0.4-2.3-0.6-3.4c-0.2-1.1-0.5-2.3-0.7-3.4
						c-0.2-1.1-0.5-2.2-0.7-3.3c-0.4-2.1-0.9-4.1-1.3-5.8c-0.4-1.7-0.7-3.1-1-4.1c-0.2-1-0.4-1.5-0.4-1.5s0.1,0.6,0.2,1.6
						c0.2,1,0.3,2.4,0.6,4.1c0.3,1.7,0.6,3.7,1,5.8c0.2,1.1,0.4,2.2,0.6,3.3c0.2,1.1,0.4,2.3,0.6,3.4c0.2,1.1,0.5,2.3,0.7,3.4
						c0.2,1.1,0.5,2.2,0.7,3.3c0.4,2.1,0.9,4.1,1.3,5.8c0.4,1.7,0.7,3.1,1,4.1C256.7,381.3,256.9,381.9,256.9,381.9z"/>
					
						<rect x="255.9" y="380" transform="matrix(-0.9998 2.191104e-02 -2.191104e-02 -0.9998 522.2695 757.5735)" fill="#6D1F1F" stroke="#333333" stroke-miterlimit="10" width="2.1" height="3.2"/>
					
						<rect x="254.3" y="372.4" transform="matrix(-0.9998 2.191104e-02 -2.191104e-02 -0.9998 518.7751 741.1323)" fill="#6D1F1F" stroke="#333333" stroke-miterlimit="10" width="2.1" height="2"/>
					<polygon fill="#CFD1D2" stroke="#333333" stroke-miterlimit="10" points="198.9,350.3 247.6,349.3 223.1,342.9 					"/>
					<path fill="#8C2929" stroke="#333333" stroke-miterlimit="10" d="M253.1,350.3c-1.3-11.8-30.1-12.1-30.1-12.1l0,0l0,0h0l0,0
						c0,0-28.7,1.5-29.5,13.4c0,0,11.4-3.3,29.8-3.7C241.6,347.4,253.1,350.3,253.1,350.3z"/>
					<polygon fill="#B4B43C" stroke="#333333" stroke-miterlimit="10" points="223.3,357.5 211.1,382.9 236.6,382.3 					"/>
					<polygon fill="#FFFFFF" stroke="#333333" stroke-miterlimit="10" points="223.3,357.5 203.4,383.1 211.1,382.9 					"/>
					<polygon fill="#FFFFFF" stroke="#333333" stroke-miterlimit="10" points="223.3,357.5 244.3,382.2 236.6,382.3 					"/>
					<polygon fill="#8C2929" stroke="#333333" stroke-miterlimit="10" points="223.3,357.5 211.1,382.9 236.6,382.3 					"/>
					<polygon fill="#CFD1D2" stroke="#333333" stroke-miterlimit="10" points="223.3,357.5 200.6,383.1 203.4,383.1 					"/>
					<polygon fill="#CFD1D2" stroke="#333333" stroke-miterlimit="10" points="223.3,357.5 247.1,382.1 244.3,382.2 					"/>
				</g>
			</g>
			<g>
				<path fill="#92B244" stroke="#333333" stroke-miterlimit="10" d="M184.2,382.3C184.2,382.3,184.2,382.3,184.2,382.3
					c0-3.1-2.5-5.6-5.5-5.6c-0.1,0-0.2,0-0.3,0c0,0,0,0,0,0c0-3.1-2.5-5.5-5.5-5.5c-3.1,0-5.5,2.5-5.5,5.5c0,0,0,0,0,0
					c-0.1,0-0.2,0-0.3,0c-3.1,0-5.5,2.5-5.5,5.5c0,0,0,0.1,0,0.1c-1.7,0.4-3,1.9-3,3.8c0,2.1,1.7,3.9,3.9,3.9h21
					c2.1,0,3.9-1.7,3.9-3.9C187.2,384.3,185.9,382.7,184.2,382.3z"/>
			</g>
			<g>
				<path fill="#92B244" stroke="#333333" stroke-miterlimit="10" d="M291.2,382.3C291.2,382.3,291.2,382.3,291.2,382.3
					c0-3.1-2.5-5.6-5.5-5.6c-0.1,0-0.2,0-0.3,0c0,0,0,0,0,0c0-3.1-2.5-5.5-5.5-5.5c-3.1,0-5.5,2.5-5.5,5.5c0,0,0,0,0,0
					c-0.1,0-0.2,0-0.3,0c-3.1,0-5.5,2.5-5.5,5.5c0,0,0,0.1,0,0.1c-1.7,0.4-3,1.9-3,3.8c0,2.1,1.7,3.9,3.9,3.9h21
					c2.1,0,3.9-1.7,3.9-3.9C294.2,384.3,292.9,382.7,291.2,382.3z"/>
			</g>
			<g>
				<path fill="#5B4545" d="M108.9,389.7c1.6-0.1,2.1-1.2,1.3-2.5l-3.9-6c-0.9-1.3-2.3-3.4-3.1-4.7l-3.9-6c-0.9-1.3-2.1-1.2-2.8,0.2
					l-1.7,3.4c-0.7,1.4-1.8,1.8-2.4,0.8c-0.6-1-1.8-2.8-2.7-4.1l-8.1-12.4c-0.9-1.3-2.1-1.2-2.8,0.2l-6.6,13.2
					c-0.7,1.4-1.8,3.7-2.5,5.1L62.7,390c-0.7,1.4,0,2.5,1.6,2.4l14.8-0.9c1.6-0.1,4.1-0.2,5.7-0.3l14.8-0.9c1.6-0.1,2.8-0.2,2.8-0.2
					s1.2-0.1,2.8-0.2L108.9,389.7z"/>
				<path fill="none" stroke="#333333" stroke-miterlimit="10" d="M108.9,389.7c1.6-0.1,2.1-1.2,1.3-2.5l-3.9-6
					c-0.9-1.3-2.3-3.4-3.1-4.7l-3.9-6c-0.9-1.3-2.1-1.2-2.8,0.2l-1.7,3.4c-0.7,1.4-1.8,1.8-2.4,0.8c-0.6-1-1.8-2.8-2.7-4.1
					l-8.1-12.4c-0.9-1.3-2.1-1.2-2.8,0.2l-6.6,13.2c-0.7,1.4-1.8,3.7-2.5,5.1L62.7,390c-0.7,1.4,0,2.5,1.6,2.4l14.8-0.9
					c1.6-0.1,4.1-0.2,5.7-0.3l14.8-0.9c1.6-0.1,2.8-0.2,2.8-0.2s1.2-0.1,2.8-0.2L108.9,389.7z"/>
			</g>
			<g>
				<path fill="#5B4545" d="M317,359.4c0.8-1.4,2.1-1.4,2.8,0l5.4,9.4c0.8,1.4,2.1,3.6,2.8,4.9l5.4,9.4c0.8,1.4,0.1,2.5-1.4,2.5
					h-10.8c-1.6,0-4.1,0-5.7,0h-10.8c-1.6,0-2.2-1.1-1.4-2.5l5.4-9.4c0.8-1.4,2.1-3.6,2.8-4.9L317,359.4z"/>
				<path fill="none" stroke="#333333" stroke-miterlimit="10" d="M317,359.4c0.8-1.4,2.1-1.4,2.8,0l5.4,9.4
					c0.8,1.4,2.1,3.6,2.8,4.9l5.4,9.4c0.8,1.4,0.1,2.5-1.4,2.5h-10.8c-1.6,0-4.1,0-5.7,0h-10.8c-1.6,0-2.2-1.1-1.4-2.5l5.4-9.4
					c0.8-1.4,2.1-3.6,2.8-4.9L317,359.4z"/>
			</g>
			<g id="XMLID_34_">
				<g id="XMLID_164_">
					<g id="XMLID_184_">
						<g id="XMLID_190_">
							<path id="XMLID_193_" fill="#967055" stroke="#363636" stroke-miterlimit="10" d="M153.8,393.3c-0.5,0.2-28.1-5.6-36.9-7.5
								c-2-0.4-3.6-1.9-4.3-3.9c0-0.1,0-0.1-0.1-0.2c-1.3-4,2-7.8,6-7l34.4,7.1c2.4,0.5,4.3,2.6,4.6,5.1
								C157.8,389.1,157.2,391.7,153.8,393.3z"/>
							<path id="XMLID_192_" fill="#A2785D" d="M115,381.7c0.1,0.2,0.3,0.3,0.5,0.4c3.9,1.7,8.2,2.3,12.3,3.2
								c7.5,1.8,14.7,4.9,22.3,6.1c-2.7-1-5.4-2-8-3.1c3.1-0.1,6.1,0,9.2,0.4c-3.5-1.6-6.9-3.1-10.4-4.7c1,0.4,2,0.2,3,0.3
								c0.8,0.1,1.5,0.4,2.3,0.7c2,0.8,4.2,1.3,6.3,1.5c0.3-1,0.6-2,0.8-3c0-0.2,0.1-0.4,0-0.6c-0.1-0.2-0.3-0.3-0.5-0.4
								c-1-0.4-2.1-0.5-3.1-0.6c-5.5-0.5-11-0.9-16.4-1.9c-5.4-1-10.8-2.5-16.3-3.4c1.5,1.2,3.2,2.1,5,2.6c-2.3,0-4.5-0.1-6.8-0.6
								c1.8,1,3.7,2,5.7,2.5c2.3,0.6,4.8,0.6,7,1.8c-3.7-0.2-7.5-0.4-11-1.9c-0.4-0.2-0.8-0.4-1.2-0.3
								C115.1,380.9,114.8,381.4,115,381.7z"/>
							<path id="XMLID_191_" fill="#A2785D" d="M155.8,384.7c-0.4-0.2-0.9-0.2-1.3,0.1c-0.4,0.3-0.6,0.7-0.7,1.1
								c-0.2,0.7-0.3,1.4,0,2.1c0.3-0.4,0.7-0.8,1-1.1c0.2,0.7,0.3,1.4,0.5,2.1c0.4-0.1,0.7-0.4,0.9-0.8c0.2-0.4,0.2-0.8,0.3-1.3
								c0-0.4,0.1-0.8,0-1.2S156.1,384.9,155.8,384.7z"/>
						</g>
						<g id="XMLID_186_">
							<path id="XMLID_189_" fill="#967055" stroke="#363636" stroke-miterlimit="10" d="M116.8,395.3c0.5,0.2,27.6-7.5,36.3-10
								c1.9-0.6,3.5-2.1,4-4.2c0-0.1,0-0.1,0.1-0.2c1-4.1-2.6-7.7-6.5-6.6l-33.8,9.5c-2.4,0.7-4.1,2.9-4.2,5.4
								C112.6,391.4,113.4,393.9,116.8,395.3z"/>
							<path id="XMLID_188_" fill="#A2785D" d="M154.7,381.1c-0.1,0.2-0.3,0.3-0.5,0.4c-3.8,2-8,2.8-12,4.1
								c-7.3,2.3-14.4,5.9-21.8,7.6c2.6-1.1,5.2-2.3,7.8-3.6c-3.1,0.1-6.1,0.5-9.1,1c3.3-1.8,6.7-3.6,10-5.4c-0.9,0.5-2,0.3-3,0.5
								c-0.8,0.2-1.5,0.5-2.2,0.9c-2,0.9-4.1,1.6-6.2,2c-0.4-1-0.7-2-1-3c-0.1-0.2-0.1-0.4,0-0.6c0.1-0.2,0.3-0.3,0.5-0.4
								c1-0.4,2-0.6,3.1-0.8c5.4-0.9,10.9-1.7,16.3-3.1c5.4-1.4,10.6-3.2,16-4.5c-1.4,1.3-3,2.3-4.8,2.9c2.3-0.1,4.5-0.5,6.7-1
								c-1.7,1.1-3.5,2.2-5.5,2.9c-2.3,0.7-4.8,0.9-6.8,2.2c3.7-0.4,7.5-0.9,10.8-2.7c0.4-0.2,0.8-0.4,1.2-0.4
								C154.6,380.2,155,380.7,154.7,381.1z"/>
							<path id="XMLID_187_" fill="#A2785D" d="M114.3,386.9c0.4-0.3,0.9-0.2,1.3,0c0.4,0.2,0.6,0.6,0.8,1c0.3,0.6,0.4,1.4,0.2,2.1
								c-0.4-0.4-0.7-0.7-1.1-1.1c-0.1,0.7-0.2,1.4-0.3,2.1c-0.4,0-0.8-0.4-1-0.7c-0.2-0.4-0.3-0.8-0.4-1.2
								c-0.1-0.4-0.1-0.8-0.1-1.2C113.8,387.5,114,387.1,114.3,386.9z"/>
						</g>
					</g>
					<g id="XMLID_165_">
						
							<rect id="XMLID_183_" x="113.4" y="382.1" transform="matrix(-0.9994 3.490162e-02 -3.490162e-02 -0.9994 283.1497 760.9038)" fill="#B9B9B9" width="43" height="1.7"/>
						
							<rect id="XMLID_182_" x="123.9" y="347.4" transform="matrix(3.489950e-02 0.9994 -0.9994 3.489950e-02 493.0827 216.8512)" fill="#B9B9B9" width="20.8" height="32.7"/>
						<polygon id="XMLID_181_" fill="#B9B9B9" points="113.8,382.1 118.1,375.5 151.2,374.3 156,380.6 						"/>
						
							<rect id="XMLID_180_" x="125.7" y="349.4" transform="matrix(3.489950e-02 0.9994 -0.9994 3.489950e-02 493.0583 216.8294)" fill="#EDEDED" width="17.1" height="28.6"/>
						<g id="XMLID_166_">
							<path id="XMLID_177_" fill="#363636" d="M120.9,373.3l27.3-1c0.7,0,1.2-0.6,1.2-1.3l-0.5-15.7c0-0.7-0.6-1.2-1.3-1.2l-27.3,1
								c-0.7,0-1.2,0.6-1.2,1.3l0.5,15.7C119.7,372.8,120.2,373.3,120.9,373.3z M119.9,356.5c0-0.3,0.3-0.6,0.6-0.6l27-0.9
								c0.3,0,0.6,0.3,0.6,0.6l0.5,15.4c0,0.3-0.3,0.6-0.6,0.6l-27,0.9c-0.3,0-0.6-0.3-0.6-0.6L119.9,356.5z"/>
							<path id="XMLID_172_" fill="#363636" d="M157.1,380.9c0-0.1,0-0.2-0.1-0.2l-5.3-6.9l-0.7-20.6c0-0.7-0.6-1.2-1.3-1.2
								l-31.8,1.1c-0.7,0-1.2,0.6-1.2,1.3l0.7,20.6l-4.8,7.3c0,0.1-0.1,0.1-0.1,0.2c0,0,0,0,0,0l0.1,2.4c0,0.1,0,0.2,0.1,0.3
								c0.1,0.1,0.2,0.1,0.3,0.1l43.7-1.5c0.2,0,0.4-0.2,0.4-0.4L157.1,380.9C157.1,380.9,157.1,380.9,157.1,380.9z M134.9,381.3
								l-21.1,0.7l3.1-4.6l5.4-0.2c0.2,0,0.4-0.2,0.4-0.4c0-0.2-0.2-0.4-0.4-0.4l-4.9,0.2l0.8-1.2l16.5-0.6l16.5-0.6l3.1,4
								l-15.4,0.5c-0.2,0-0.4,0.2-0.4,0.4c0,0.2,0.2,0.4,0.4,0.4l16-0.6l1.2,1.5L134.9,381.3z M150.3,353.4l0.7,20.2l-16.3,0.6
								l-16.3,0.6l-0.7-20.2c0-0.3,0.3-0.6,0.6-0.6l31.5-1.1C150,352.8,150.3,353,150.3,353.4z M113.5,384.3l-0.1-1.5l21.5-0.8
								l21.5-0.8l0.1,1.5c0,0.1-0.1,0.2-0.1,0.2l-42.7,1.5C113.5,384.5,113.5,384.4,113.5,384.3z"/>
							<path id="XMLID_171_" fill="#363636" d="M135.9,379l-5.4,0.2c-0.2,0-0.4,0.2-0.4,0.4c0,0.2,0.2,0.4,0.4,0.4l5.4-0.2
								c0.2,0,0.4-0.2,0.4-0.4C136.3,379.1,136.1,379,135.9,379z"/>
							<g id="XMLID_167_">
								<path id="XMLID_170_" fill="#363636" d="M126.6,363.2l-4.2,0.1c-0.1,0-0.2,0.1-0.3,0.1c-0.1,0.1-0.1,0.2-0.1,0.3
									c0,0.2,0.2,0.4,0.4,0.4l4.2-0.1c0.2,0,0.4-0.2,0.4-0.4C127,363.3,126.8,363.2,126.6,363.2z"/>
								<path id="XMLID_169_" fill="#363636" d="M132.1,360.2l-9.7,0.3c-0.1,0-0.2,0.1-0.3,0.1c-0.1,0.1-0.1,0.2-0.1,0.3
									c0,0.2,0.2,0.4,0.4,0.4l9.7-0.3c0.2,0,0.4-0.2,0.4-0.4C132.5,360.3,132.3,360.2,132.1,360.2z"/>
								<path id="XMLID_168_" fill="#363636" d="M137.5,357.2l-15.3,0.5c-0.1,0-0.2,0.1-0.3,0.1c-0.1,0.1-0.1,0.2-0.1,0.3
									c0,0.2,0.2,0.4,0.4,0.4l15.3-0.5c0.2,0,0.4-0.2,0.4-0.4C137.9,357.4,137.8,357.2,137.5,357.2z"/>
							</g>
						</g>
					</g>
				</g>
			</g>
			<g>
				<path fill="#FFFFFF" d="M353.9,245.8c3-4.6,7.8-4.6,10.6,0.1l21.1,34.6c2.9,4.7,1.6,5.8-2.7,2.4l-2.6-2
					c-4.4-3.4-8.7-3.6-9.7-0.5s-4.7,3.3-8.4,0.4c-3.7-2.8-10.8-3.5-15.9-1.4l-10,4.1c-5.1,2.1-6.8,0-3.8-4.6L353.9,245.8z"/>
				<path fill="none" stroke="#333333" stroke-miterlimit="10" d="M353.9,245.8c3-4.6,7.8-4.6,10.6,0.1l21.1,34.6
					c2.9,4.7,1.6,5.8-2.7,2.4l-2.6-2c-4.4-3.4-8.7-3.6-9.7-0.5s-4.7,3.3-8.4,0.4c-3.7-2.8-10.8-3.5-15.9-1.4l-10,4.1
					c-5.1,2.1-6.8,0-3.8-4.6L353.9,245.8z"/>
			</g>
		</g>
	</g>
	<g>
		<path fill="#BA8968" stroke="#333333" stroke-miterlimit="10" d="M58.8,386.4H-10c-4.1,0-7.5,3.4-7.5,7.5v0c0,4.1,3.4,7.5,7.5,7.5
			h68.8c4.1,0,7.5-3.4,7.5-7.5v0C66.3,389.8,62.9,386.4,58.8,386.4z"/>
		<circle fill="#977055" stroke="#333333" stroke-miterlimit="10" cx="58.8" cy="393.9" r="7.5"/>
		<circle fill="#62564C" stroke="#333333" stroke-miterlimit="10" cx="58.8" cy="393.9" r="5.1"/>
		<line fill="none" stroke="#333333" stroke-miterlimit="10" x1="46.6" y1="390.6" x2="38.6" y2="390.6"/>
		<line fill="none" stroke="#333333" stroke-miterlimit="10" x1="31.5" y1="393.2" x2="23.4" y2="393.2"/>
		<line fill="none" stroke="#333333" stroke-miterlimit="10" x1="11.7" y1="390.6" x2="1.6" y2="390.6"/>
		<line fill="none" stroke="#333333" stroke-miterlimit="10" x1="14.7" y1="397.6" x2="2.6" y2="397.6"/>
		<line fill="none" stroke="#333333" stroke-miterlimit="10" x1="-10.3" y1="381.2" x2="-1.2" y2="390.4"/>
		<line fill="none" stroke="#333333" stroke-miterlimit="10" x1="43.6" y1="381.2" x2="34.4" y2="390.4"/>
	</g>
	<g>
		<path fill="#BA8968" stroke="#333333" stroke-miterlimit="10" d="M725.4,385.1h68.8c4.1,0,7.5,3.4,7.5,7.5v0
			c0,4.1-3.4,7.5-7.5,7.5h-68.8c-4.1,0-7.5-3.4-7.5-7.5v0C717.9,388.4,721.3,385.1,725.4,385.1z"/>
		<circle fill="#977055" stroke="#333333" stroke-miterlimit="10" cx="725.4" cy="392.6" r="7.5"/>
		<circle fill="#62564C" stroke="#333333" stroke-miterlimit="10" cx="725.4" cy="392.6" r="5.1"/>
		<line fill="none" stroke="#333333" stroke-miterlimit="10" x1="737.6" y1="389.3" x2="745.7" y2="389.3"/>
		<line fill="none" stroke="#333333" stroke-miterlimit="10" x1="752.7" y1="391.9" x2="760.8" y2="391.9"/>
		<line fill="none" stroke="#333333" stroke-miterlimit="10" x1="772.5" y1="389.3" x2="782.6" y2="389.3"/>
		<line fill="none" stroke="#333333" stroke-miterlimit="10" x1="769.5" y1="396.3" x2="781.6" y2="396.3"/>
		<line fill="none" stroke="#333333" stroke-miterlimit="10" x1="742.6" y1="379.9" x2="751.8" y2="389"/>
		<line fill="none" stroke="#333333" stroke-miterlimit="10" x1="769.4" y1="379.9" x2="760.3" y2="389"/>
	</g>
	<g>
		<path fill="#5F96D7" stroke="#333333" stroke-width="0.5" stroke-miterlimit="10" d="M258.1,379.7c-1.8-0.5-12.7-1.5-12.7-1.5
			c-1.9,0-3.5,0.9-4.5,2.2c-0.5,0.7-0.8,1.6-0.8,2.5c0,2.6,2.4,4.6,5.3,4.6h12.7c2.9,0,5.3-0.7,5.3-3.7
			C263.3,380.9,259.9,380.2,258.1,379.7z"/>
		<g>
			<path fill="#FFFFFF" stroke="#333333" stroke-width="0.5" stroke-miterlimit="10" d="M260,383.4c0-1.1-0.4-2.1-1-3
				c-0.1-0.2-0.2-0.3-0.4-0.5c-0.2-0.1-0.4-0.1-0.6-0.2c-0.2-0.1-0.6-0.1-1.1-0.2c0.3,0.3,0.5,0.5,0.7,0.8c0.6,0.9,1,1.9,1,3
				c0,1.7-0.8,3.2-2.2,4.2h1.3C259.1,386.5,260,385,260,383.4z"/>
			<path fill="#FFFFFF" stroke="#333333" stroke-width="0.5" stroke-miterlimit="10" d="M254.3,382.6c0-1.1-0.4-2.1-1-3
				c-0.1-0.2-0.3-0.4-0.5-0.6c-0.5-0.1-0.9-0.1-1.4-0.1c0.2,0.2,0.4,0.5,0.6,0.7c0.6,0.9,1,1.9,1,3c0,2.2-1.4,4.1-3.4,5h1.3
				C252.9,386.6,254.3,384.7,254.3,382.6z"/>
		</g>
		<path fill="#CFD1D2" stroke="#333333" stroke-width="0.5" stroke-miterlimit="10" d="M250.5,380.4c-0.9-1.3-2.6-2.2-4.5-2.2h-12.7
			c-1.9,0-3.5,0.9-4.5,2.2c-0.5,0.7-0.8,1.6-0.8,2.5c0,2.6,2.4,4.6,5.3,4.6H246c2.9,0,5.3-2.1,5.3-4.6
			C251.3,382,251,381.1,250.5,380.4z"/>
		<path fill="#5F96D7" stroke="#333333" stroke-width="0.5" stroke-miterlimit="10" d="M248.8,380.4c-0.9-1.3-2.6-2.2-4.5-2.2h-12.7
			c-1.9,0-3.5,0.9-4.5,2.2c-0.5,0.7-0.8,1.6-0.8,2.5c0,2.6,2.4,4.6,5.3,4.6h12.7c2.9,0,5.3-2.1,5.3-4.6
			C249.6,382,249.3,381.1,248.8,380.4z"/>
		<path fill="#A5A6A9" stroke="#333333" stroke-width="0.5" stroke-miterlimit="10" d="M233,382.7h10c1.5,0,2.8-0.7,3.5-1.7
			c-0.7-1-2-1.7-3.5-1.7h-10c-1.5,0-2.8,0.7-3.5,1.7C230.2,382,231.5,382.7,233,382.7z"/>
	</g>
	<g>
		<g>
			<path fill="#E7CD30" stroke="#333333" stroke-width="0.5" stroke-miterlimit="10" d="M506.2,377.7c-0.3-0.6-1-0.8-1.6-0.5
				l-1.1,0.6l0.7-1.2c0.3-0.6,0.1-1.3-0.5-1.6c-0.6-0.3-1.3-0.1-1.6,0.5l-0.7,1.2l0-1.3c0-0.7-0.5-1.2-1.2-1.2
				c-0.7,0-1.2,0.5-1.2,1.2l0,1.3l-0.6-1.2c-0.3-0.6-1-0.8-1.6-0.5c-0.6,0.3-0.8,1-0.5,1.6l0.6,1.1l-0.9-0.6
				c-0.6-0.4-1.3-0.2-1.6,0.4c-0.4,0.6-0.2,1.3,0.4,1.6l3.6,2.3c0.6,0.4,1.3,0.2,1.6-0.4c0-0.1,0.1-0.1,0.1-0.2c0,0,0.1,0,0.1,0
				c0,0,0.1,0,0.1,0c0,0,0,0,0,0c0.3,0.6,1,0.8,1.6,0.5l3.8-2.1C506.3,379,506.5,378.3,506.2,377.7z"/>
			<path fill="#9AAF4E" stroke="#333333" stroke-width="0.5" stroke-miterlimit="10" d="M503.5,383.5c-0.4-0.4-1.7,0.3-2,0.7l0,0
				c-0.3,0.3-0.3,0.8-0.1,1.1l-0.5,0.5v-3.2c0.5,0,1-0.3,1.2-0.8l0-0.1c0.3-0.7,0.4-2.6-0.3-2.9c-0.4-0.2-1,0.2-1.5,0.8
				c-0.5-0.5-1.1-0.9-1.5-0.8c-0.7,0.3-0.6,2.2-0.3,2.9l0,0.1c0.2,0.5,0.7,0.8,1.2,0.8v3.2l-0.5-0.5c0.2-0.4,0.1-0.8-0.1-1.1l0,0
				c-0.4-0.4-1.6-1.1-2-0.7c-0.4,0.4,0.2,1.7,0.5,2.1l0,0c0.3,0.3,0.8,0.4,1.2,0.2l1,1v2.7c0,0.3,0.2,0.5,0.5,0.5
				c0.3,0,0.5-0.2,0.5-0.5v-2.7l1-1c0.4,0.2,0.9,0.1,1.2-0.2l0,0C503.3,385.2,503.9,383.8,503.5,383.5z"/>
		</g>
		<g>
			<g>
				<path fill="#C93C66" stroke="#333333" stroke-width="0.5" stroke-miterlimit="10" d="M521.7,373.3c-0.3-0.6-1-0.8-1.6-0.5
					l-1.1,0.6l0.7-1.2c0.3-0.6,0.1-1.3-0.5-1.6c-0.6-0.3-1.3-0.1-1.6,0.5l-0.7,1.2l0-1.3c0-0.7-0.5-1.2-1.2-1.2
					c-0.7,0-1.2,0.5-1.2,1.2l0,1.3l-0.6-1.2c-0.3-0.6-1-0.8-1.6-0.5c-0.6,0.3-0.8,1-0.5,1.6l0.6,1.1l-0.9-0.6
					c-0.6-0.4-1.3-0.2-1.6,0.4c-0.4,0.6-0.2,1.3,0.4,1.6l3.6,2.3c0.6,0.4,1.3,0.2,1.6-0.4c0-0.1,0.1-0.1,0.1-0.2c0,0,0.1,0,0.1,0
					c0,0,0.1,0,0.1,0c0,0,0,0,0,0c0.3,0.6,1,0.8,1.6,0.5l3.8-2.1C521.8,374.6,522,373.9,521.7,373.3z"/>
				<path fill="#9AAF4E" stroke="#333333" stroke-width="0.5" stroke-miterlimit="10" d="M518.9,379.1c-0.4-0.4-1.7,0.3-2,0.7l0,0
					c-0.3,0.3-0.3,0.8-0.1,1.1l-0.5,0.5v-3.2c0.5,0,1-0.3,1.2-0.8l0-0.1c0.3-0.7,0.4-2.6-0.3-2.9c-0.4-0.2-1,0.2-1.5,0.8
					c-0.5-0.5-1.1-0.9-1.5-0.8c-0.7,0.3-0.6,2.2-0.3,2.9l0,0.1c0.2,0.5,0.7,0.8,1.2,0.8v3.2l-0.5-0.5c0.2-0.4,0.1-0.8-0.1-1.1l0,0
					c-0.4-0.4-1.6-1.1-2-0.7c-0.4,0.4,0.2,1.7,0.5,2.1l0,0c0.3,0.3,0.8,0.4,1.2,0.2l1,1v2.7c0,0.3,0.2,0.5,0.5,0.5
					c0.3,0,0.5-0.2,0.5-0.5v-2.7l1-1c0.4,0.2,0.9,0.1,1.2-0.2l0,0C518.8,380.8,519.4,379.5,518.9,379.1z"/>
			</g>
			<g>
				<path fill="#E48A2C" stroke="#333333" stroke-width="0.5" stroke-miterlimit="10" d="M490.7,373.3c-0.3-0.6-1-0.8-1.6-0.5
					l-1.1,0.6l0.7-1.2c0.3-0.6,0.1-1.3-0.5-1.6c-0.6-0.3-1.3-0.1-1.6,0.5l-0.7,1.2l0-1.3c0-0.7-0.5-1.2-1.2-1.2
					c-0.7,0-1.2,0.5-1.2,1.2l0,1.3l-0.6-1.2c-0.3-0.6-1-0.8-1.6-0.5c-0.6,0.3-0.8,1-0.5,1.6l0.6,1.1l-0.9-0.6
					c-0.6-0.4-1.3-0.2-1.6,0.4c-0.4,0.6-0.2,1.3,0.4,1.6l3.6,2.3c0.6,0.4,1.3,0.2,1.6-0.4c0-0.1,0.1-0.1,0.1-0.2c0,0,0.1,0,0.1,0
					c0,0,0.1,0,0.1,0c0,0,0,0,0,0c0.3,0.6,1,0.8,1.6,0.5l3.8-2.1C490.8,374.6,491,373.9,490.7,373.3z"/>
				<path fill="#9AAF4E" stroke="#333333" stroke-width="0.5" stroke-miterlimit="10" d="M488,379.1c-0.4-0.4-1.7,0.3-2,0.7l0,0
					c-0.3,0.3-0.3,0.8-0.1,1.1l-0.5,0.5v-3.2c0.5,0,1-0.3,1.2-0.8l0-0.1c0.3-0.7,0.4-2.6-0.3-2.9c-0.4-0.2-1,0.2-1.5,0.8
					c-0.5-0.5-1.1-0.9-1.5-0.8c-0.7,0.3-0.6,2.2-0.3,2.9l0,0.1c0.2,0.5,0.7,0.8,1.2,0.8v3.2l-0.5-0.5c0.2-0.4,0.1-0.8-0.1-1.1l0,0
					c-0.4-0.4-1.6-1.1-2-0.7c-0.4,0.4,0.2,1.7,0.5,2.1l0,0c0.3,0.3,0.8,0.4,1.2,0.2l1,1v2.7c0,0.3,0.2,0.5,0.5,0.5
					c0.3,0,0.5-0.2,0.5-0.5v-2.7l1-1c0.4,0.2,0.9,0.1,1.2-0.2l0,0C487.8,380.8,488.4,379.5,488,379.1z"/>
			</g>
		</g>
	</g>
	<g>
		<g>
			<path fill="#E7CD30" stroke="#333333" stroke-width="0.5" stroke-miterlimit="10" d="M639.8,383.5c-0.3-0.6-1-0.8-1.6-0.5
				l-1.1,0.6l0.7-1.2c0.3-0.6,0.1-1.3-0.5-1.6c-0.6-0.3-1.3-0.1-1.6,0.5l-0.7,1.2l0-1.3c0-0.7-0.5-1.2-1.2-1.2
				c-0.7,0-1.2,0.5-1.2,1.2l0,1.3l-0.6-1.2c-0.3-0.6-1-0.8-1.6-0.5c-0.6,0.3-0.8,1-0.5,1.6l0.6,1.1l-0.9-0.6
				c-0.6-0.4-1.3-0.2-1.6,0.4c-0.4,0.6-0.2,1.3,0.4,1.6l3.6,2.3c0.6,0.4,1.3,0.2,1.6-0.4c0-0.1,0.1-0.1,0.1-0.2c0,0,0.1,0,0.1,0
				c0,0,0.1,0,0.1,0c0,0,0,0,0,0c0.3,0.6,1,0.8,1.6,0.5l3.8-2.1C639.9,384.8,640.1,384,639.8,383.5z"/>
			<path fill="#9AAF4E" stroke="#333333" stroke-width="0.5" stroke-miterlimit="10" d="M637,389.3c-0.4-0.4-1.7,0.3-2,0.7l0,0
				c-0.3,0.3-0.3,0.8-0.1,1.1l-0.5,0.5v-3.2c0.5,0,1-0.3,1.2-0.8l0-0.1c0.3-0.7,0.4-2.6-0.3-2.9c-0.4-0.2-1,0.2-1.5,0.8
				c-0.5-0.5-1.1-0.9-1.5-0.8c-0.7,0.3-0.6,2.2-0.3,2.9l0,0.1c0.2,0.5,0.7,0.8,1.2,0.8v3.2l-0.5-0.5c0.2-0.4,0.1-0.8-0.1-1.1l0,0
				c-0.4-0.4-1.6-1.1-2-0.7c-0.4,0.4,0.2,1.7,0.5,2.1l0,0c0.3,0.3,0.8,0.4,1.2,0.2l1,1v2.7c0,0.3,0.2,0.5,0.5,0.5
				c0.3,0,0.5-0.2,0.5-0.5v-2.7l1-1c0.4,0.2,0.9,0.1,1.2-0.2l0,0C636.9,390.9,637.5,389.6,637,389.3z"/>
		</g>
		<g>
			<g>
				<path fill="#C93C66" stroke="#333333" stroke-width="0.5" stroke-miterlimit="10" d="M655.3,379.1c-0.3-0.6-1-0.8-1.6-0.5
					l-1.1,0.6l0.7-1.2c0.3-0.6,0.1-1.3-0.5-1.6c-0.6-0.3-1.3-0.1-1.6,0.5l-0.7,1.2l0-1.3c0-0.7-0.5-1.2-1.2-1.2
					c-0.7,0-1.2,0.5-1.2,1.2l0,1.3l-0.6-1.2c-0.3-0.6-1-0.8-1.6-0.5c-0.6,0.3-0.8,1-0.5,1.6l0.6,1.1l-0.9-0.6
					c-0.6-0.4-1.3-0.2-1.6,0.4c-0.4,0.6-0.2,1.3,0.4,1.6l3.6,2.3c0.6,0.4,1.3,0.2,1.6-0.4c0-0.1,0.1-0.1,0.1-0.2c0,0,0.1,0,0.1,0
					c0,0,0.1,0,0.1,0c0,0,0,0,0,0c0.3,0.6,1,0.8,1.6,0.5l3.8-2.1C655.4,380.4,655.6,379.7,655.3,379.1z"/>
				<path fill="#9AAF4E" stroke="#333333" stroke-width="0.5" stroke-miterlimit="10" d="M652.5,384.9c-0.4-0.4-1.7,0.3-2,0.7l0,0
					c-0.3,0.3-0.3,0.8-0.1,1.1l-0.5,0.5v-3.2c0.5,0,1-0.3,1.2-0.8l0-0.1c0.3-0.7,0.4-2.6-0.3-2.9c-0.4-0.2-1,0.2-1.5,0.8
					c-0.5-0.5-1.1-0.9-1.5-0.8c-0.7,0.3-0.6,2.2-0.3,2.9l0,0.1c0.2,0.5,0.7,0.8,1.2,0.8v3.2l-0.5-0.5c0.2-0.4,0.1-0.8-0.1-1.1l0,0
					c-0.4-0.4-1.6-1.1-2-0.7c-0.4,0.4,0.2,1.7,0.5,2.1l0,0c0.3,0.3,0.8,0.4,1.2,0.2l1,1v2.7c0,0.3,0.2,0.5,0.5,0.5
					c0.3,0,0.5-0.2,0.5-0.5v-2.7l1-1c0.4,0.2,0.9,0.1,1.2-0.2l0,0C652.4,386.6,652.9,385.3,652.5,384.9z"/>
			</g>
			<g>
				<path fill="#E48A2C" stroke="#333333" stroke-width="0.5" stroke-miterlimit="10" d="M624.3,379.1c-0.3-0.6-1-0.8-1.6-0.5
					l-1.1,0.6l0.7-1.2c0.3-0.6,0.1-1.3-0.5-1.6c-0.6-0.3-1.3-0.1-1.6,0.5l-0.7,1.2l0-1.3c0-0.7-0.5-1.2-1.2-1.2
					c-0.7,0-1.2,0.5-1.2,1.2l0,1.3l-0.6-1.2c-0.3-0.6-1-0.8-1.6-0.5c-0.6,0.3-0.8,1-0.5,1.6l0.6,1.1l-0.9-0.6
					c-0.6-0.4-1.3-0.2-1.6,0.4c-0.4,0.6-0.2,1.3,0.4,1.6l3.6,2.3c0.6,0.4,1.3,0.2,1.6-0.4c0-0.1,0.1-0.1,0.1-0.2c0,0,0.1,0,0.1,0
					c0,0,0.1,0,0.1,0c0,0,0,0,0,0c0.3,0.6,1,0.8,1.6,0.5l3.8-2.1C624.4,380.4,624.6,379.7,624.3,379.1z"/>
				<path fill="#9AAF4E" stroke="#333333" stroke-width="0.5" stroke-miterlimit="10" d="M621.6,384.9c-0.4-0.4-1.7,0.3-2,0.7l0,0
					c-0.3,0.3-0.3,0.8-0.1,1.1l-0.5,0.5v-3.2c0.5,0,1-0.3,1.2-0.8l0-0.1c0.3-0.7,0.4-2.6-0.3-2.9c-0.4-0.2-1,0.2-1.5,0.8
					c-0.5-0.5-1.1-0.9-1.5-0.8c-0.7,0.3-0.6,2.2-0.3,2.9l0,0.1c0.2,0.5,0.7,0.8,1.2,0.8v3.2l-0.5-0.5c0.2-0.4,0.1-0.8-0.1-1.1l0,0
					c-0.4-0.4-1.6-1.1-2-0.7c-0.4,0.4,0.2,1.7,0.5,2.1l0,0c0.3,0.3,0.8,0.4,1.2,0.2l1,1v2.7c0,0.3,0.2,0.5,0.5,0.5
					c0.3,0,0.5-0.2,0.5-0.5v-2.7l1-1c0.4,0.2,0.9,0.1,1.2-0.2l0,0C621.4,386.6,622,385.3,621.6,384.9z"/>
			</g>
		</g>
	</g>
	<g>
		<path fill="#BA8968" stroke="#333333" stroke-miterlimit="10" d="M429.8,373.9H361c-4.1,0-7.5,3.4-7.5,7.5v0
			c0,4.1,3.4,7.5,7.5,7.5h68.8c4.1,0,7.5-3.4,7.5-7.5v0C437.3,377.3,433.9,373.9,429.8,373.9z"/>
		<circle fill="#977055" stroke="#333333" stroke-miterlimit="10" cx="429.8" cy="381.4" r="7.5"/>
		<circle fill="#62564C" stroke="#333333" stroke-miterlimit="10" cx="429.8" cy="381.4" r="5.1"/>
		<line fill="none" stroke="#333333" stroke-miterlimit="10" x1="417.6" y1="378.2" x2="409.5" y2="378.2"/>
		<line fill="none" stroke="#333333" stroke-miterlimit="10" x1="402.5" y1="380.7" x2="394.4" y2="380.7"/>
		<line fill="none" stroke="#333333" stroke-miterlimit="10" x1="382.7" y1="378.2" x2="372.6" y2="378.2"/>
		<line fill="none" stroke="#333333" stroke-miterlimit="10" x1="385.7" y1="385.2" x2="373.6" y2="385.2"/>
		<line fill="none" stroke="#333333" stroke-miterlimit="10" x1="367.9" y1="367.5" x2="362.5" y2="379.2"/>
	</g>
</g>
</svg>
