<?xml version="1.0" encoding="utf-8"?>
<!-- Generator: Adobe Illustrator 19.0.0, SVG Export Plug-In . SVG Version: 6.00 Build 0)  -->
<svg version="1.1" id="Layer_1" xmlns="http://www.w3.org/2000/svg" xmlns:xlink="http://www.w3.org/1999/xlink" x="0px" y="0px"
	 viewBox="0 0 925.6 575.8" enable-background="new 0 0 925.6 575.8" xml:space="preserve">
<g id="Objects">
	<g id="XMLID_62_">
		<g id="XMLID_255_">
			<g id="XMLID_256_">
				<g id="XMLID_258_">
					<path id="XMLID_262_" fill="#FFFFFF" stroke="#333333" stroke-miterlimit="10" d="M546.6,80.5h-0.9c0.6-2.1,0.9-4.2,0.9-6.5
						c0-12.9-10.7-23.4-23.7-23.4c-2,0-3.8,0.3-5.4,0.6c0-0.6,0-1.2,0-1.8c0-21-17.3-38-38.6-38c-10.1,0-19.2,3.8-26.1,10.1
						c-7.2-8.9-18.2-14.4-30.6-14.4c-18.3,0-33.8,12.3-38.1,29.1c-2.9-0.6-5.9-1.1-8.9-1.1c-21.3,0-38.6,17-38.6,38
						c0,2.7,0.3,5.3,0.8,7.8c-10.5,2.1-18.5,11.3-18.5,22.2c0,12.5,10.4,22.7,23,22.7h204.5c12.8,0,23-10.2,23-22.7
						C569.7,90.7,559.4,80.5,546.6,80.5z"/>
					<path id="XMLID_261_" fill="#F4F8FD" stroke="#333333" stroke-miterlimit="10" d="M256.1,303h-0.8c0.5-1.5,0.8-3.2,0.8-4.8
						c0-9.6-8-17.6-17.7-17.6c-1.4,0-2.7,0.2-4.1,0.5c0-0.5,0-0.9,0-1.4c0-15.8-12.9-28.5-29-28.5c-7.5,0-14.4,2.9-19.5,7.5
						c-5.4-6.6-13.7-10.8-23-10.8c-13.7,0-25.2,9.3-28.5,21.8c-2.1-0.5-4.4-0.8-6.6-0.8c-15.9,0-29,12.8-29,28.5
						c0,2,0.2,3.9,0.6,5.9c-7.8,1.5-13.8,8.4-13.8,16.7c0,9.5,7.7,17,17.3,17h153.2c9.5,0,17.3-7.7,17.3-17
						C273.3,310.5,265.5,303,256.1,303z"/>
					<path id="XMLID_259_" fill="#F4F8FD" stroke="#333333" stroke-miterlimit="10" d="M551.9,255.9c-1.4-2.7-2-5.9-2-9
						c0-11.7,9.5-21.3,21.3-21.3c2.7,0,5.4,0.6,7.8,1.5c3.5-17.9,19.2-31.5,38.1-31.5c17.3,0,32,11.4,36.9,27
						c2.6-0.8,5.3-1.2,8.1-1.2c15,0,27.2,12.2,27.2,27.2c0,2.4-0.3,4.8-0.9,7.1c10.8,0.9,19.2,9.9,19.2,20.9
						c0,11.6-9.3,20.9-20.9,20.9h-131c-11.6,0-20.9-9.3-20.9-20.9C534.9,266.2,542.3,257.7,551.9,255.9z"/>
				</g>
				<circle id="XMLID_257_" fill="#FCF8C5" stroke="#333333" stroke-miterlimit="10" cx="844.9" cy="85.2" r="60.8"/>
			</g>
		</g>
		<g id="XMLID_63_">
			<g id="XMLID_252_">
				<path id="XMLID_254_" fill="#5C4646" d="M245.1,273.3c3.2-7.7,8.7-7.8,12.3-0.3l129.5,265.8c3.6,7.4-0.2,13.7-8.4,14l-104,3
					c-8.3,0.3-21.8,0.6-30,0.9l-104,3c-8.3,0.3-12.5-5.9-9.2-13.4L245.1,273.3z"/>
				<path id="XMLID_253_" fill="none" stroke="#333333" stroke-miterlimit="10" d="M245.1,273.3c3.2-7.7,8.7-7.8,12.3-0.3
					l129.5,265.8c3.6,7.4-0.2,13.7-8.4,14l-104,3c-8.3,0.3-21.8,0.6-30,0.9l-104,3c-8.3,0.3-12.5-5.9-9.2-13.4L245.1,273.3z"/>
			</g>
			<g id="XMLID_247_">
				<g id="XMLID_249_">
					<path id="XMLID_251_" fill="#FFFFFF" d="M244.8,270.9c3-7.7,8.6-8,12.3-0.5l40.4,81.2c3.6,7.4,2.6,8.1-2.7,1.7l-25.2-31.7
						c-5.1-6.5-10.4-5.1-11.9,3l-3.2,19.1c-1.4,8.1-5.3,8.7-8.9,1.2l-1.5-3.2c-3.5-7.5-10.5-8.4-15.8-2l-13.2,16.5
						c-5.1,6.5-6.9,5.4-3.8-2.3L244.8,270.9z"/>
					<path id="XMLID_250_" fill="none" stroke="#333333" stroke-miterlimit="10" d="M244.8,270.9c3-7.7,8.6-8,12.3-0.5l40.4,81.2
						c3.6,7.4,2.6,8.1-2.7,1.7l-25.2-31.7c-5.1-6.5-10.4-5.1-11.9,3l-3.2,19.1c-1.4,8.1-5.3,8.7-8.9,1.2l-1.5-3.2
						c-3.5-7.5-10.5-8.4-15.8-2l-13.2,16.5c-5.1,6.5-6.9,5.4-3.8-2.3L244.8,270.9z"/>
				</g>
				<path id="XMLID_248_" fill="#FFFFFF" stroke="#333333" stroke-miterlimit="10" d="M210,361.2v0.6V361.2L210,361.2z"/>
			</g>
			<g id="XMLID_244_">
				<path id="XMLID_246_" fill="#644C4C" d="M402.9,105.1c3.3-7.5,8.9-7.7,12.3-0.2l199.7,433.2c3.5,7.5-0.5,13.7-8.7,13.8
					l-177.6,1.8c-8.3,0.2-21.8,0.2-30,0.3L221,555.9c-8.3,0.2-12.3-6-9-13.7L402.9,105.1z"/>
				<path id="XMLID_245_" fill="none" stroke="#333333" stroke-miterlimit="10" d="M402.9,105.1c3.3-7.5,8.9-7.7,12.3-0.2
					l199.7,433.2c3.5,7.5-0.5,13.7-8.7,13.8l-177.6,1.8c-8.3,0.2-21.8,0.2-30,0.3L221,555.9c-8.3,0.2-12.3-6-9-13.7L402.9,105.1z"/>
			</g>
			<g id="XMLID_241_">
				<path id="XMLID_243_" fill="#715B5B" d="M556.2,344c4.1-7.1,10.9-7.1,15,0l49.4,85.8c4.1,7.2,10.8,18.8,14.9,26l49.4,85.8
					c4.1,7.2,0.7,13-7.5,13l-99-0.2c-8.3-0.1-21.8-0.1-30,0l-99-0.2c-8.3-0.1-11.6-5.9-7.5-13l49.7-85.6
					c4.1-7.1,10.9-18.8,15.1-25.9L556.2,344z"/>
				<path id="XMLID_242_" fill="none" stroke="#333333" stroke-miterlimit="10" d="M556.2,344c4.1-7.1,10.9-7.1,15,0l49.4,85.8
					c4.1,7.2,10.8,18.8,14.9,26l49.4,85.8c4.1,7.2,0.7,13-7.5,13l-99-0.2c-8.3-0.1-21.8-0.1-30,0l-99-0.2c-8.3-0.1-11.6-5.9-7.5-13
					l49.7-85.6c4.1-7.1,10.9-18.8,15.1-25.9L556.2,344z"/>
			</g>
			<g id="XMLID_238_">
				<path id="XMLID_240_" fill="#766565" d="M149.5,360.3c3.6-7.5,9.5-7.4,13.1,0l91.1,186.7c3.6,7.4-0.1,13.5-8.4,13.6l-73.6,0.2
					c-8.3,0.1-21.8,0.1-30,0l-73.6,0.2c-8.3,0.1-12-6.1-8.6-13.4L149.5,360.3z"/>
				<path id="XMLID_239_" fill="none" stroke="#333333" stroke-miterlimit="10" d="M149.5,360.3c3.6-7.5,9.5-7.4,13.1,0l91.1,186.7
					c3.6,7.4-0.1,13.5-8.4,13.6l-73.6,0.2c-8.3,0.1-21.8,0.1-30,0l-73.6,0.2c-8.3,0.1-12-6.1-8.6-13.4L149.5,360.3z"/>
			</g>
			<g id="XMLID_233_">
				<g id="XMLID_235_">
					<path id="XMLID_237_" fill="#FFFFFF" d="M148.7,358.3c3.8-7.3,9.9-7.4,13.8,0l8.9,17.2c3.7,7.4,4.1,10.1,0.6,6
						c-3.4-4.1-7-4.7-7.9-1.5c-0.9,3.3-3.4,4.5-5.4,2.9s-4.9-2-6.4-0.9c-1.6,1.1-3-0.4-3.2-3.4c-0.2-3-3.8-2.1-8,2.1
						c-4.2,4.2-4.6,1.6-0.8-5.7L148.7,358.3z"/>
					<path id="XMLID_236_" fill="none" stroke="#333333" stroke-miterlimit="10" d="M148.7,358.3c3.8-7.3,9.9-7.4,13.8,0l8.9,17.2
						c3.7,7.4,4.1,10.1,0.6,6c-3.4-4.1-7-4.7-7.9-1.5c-0.9,3.3-3.4,4.5-5.4,2.9s-4.9-2-6.4-0.9c-1.6,1.1-3-0.4-3.2-3.4
						c-0.2-3-3.8-2.1-8,2.1c-4.2,4.2-4.6,1.6-0.8-5.7L148.7,358.3z"/>
				</g>
				<path id="XMLID_234_" fill="#FFFFFF" stroke="#333333" stroke-miterlimit="10" d="M135.2,385.6l0,0.3L135.2,385.6L135.2,385.6z"
					/>
			</g>
			<g id="XMLID_229_">
				<g id="XMLID_231_">
					<path id="XMLID_232_" fill="#FFFFFF" d="M402.8,104.4c3.3-7.5,8.9-7.7,12.3-0.2l49.1,106.7c3.5,7.5,2.3,8.3-2.7,1.7l-33.6-45
						c-5-6.6-10.2-5.4-11.9,2.7l-5.9,29.7c-1.7,8.1-5.6,8.6-8.9,0.9l-4.4-10.1c-3.3-7.7-10.4-8.7-15.6-2.4l-21,24.8
						c-5.4,6.3-7.1,5.3-3.8-2.4L402.8,104.4z"/>
				</g>
				<path id="XMLID_230_" fill="#FFFFFF" stroke="#333333" stroke-miterlimit="10" d="M355.5,217.9c-0.5,0-0.9-0.2-1.1-0.6
					c-0.5-0.6-0.8-2,1.5-6.9l46.2-106.4c1.8-4.1,4.2-6.2,6.8-6.2c2.6,0,5.1,2.1,6.8,6l49.1,106.7c2.6,5.6,2.1,6.3,1.8,6.8
					c-0.1,0.3-0.4,0.5-0.9,0.5c-0.5,0-1.4,0-5-4.8l-33.6-45c-2-2.6-3.9-3.9-5.7-3.9c-2.3,0-4.1,2.3-4.8,6.3l-5.9,29.7
					c-1.2,6-3.5,6.9-4.8,6.9c-2,0-3.9-2.1-5.6-5.9l-4.4-10.1c-1.7-3.8-4.4-6-7.4-6c-2.4,0-4.8,1.4-6.9,3.9l-21,24.8
					C357.6,217.5,356.3,217.9,355.5,217.9z"/>
			</g>
			<g id="XMLID_145_">
				<g id="XMLID_221_">
					<g id="XMLID_222_">
						<circle id="XMLID_224_" fill="#B5D674" stroke="#333333" stroke-miterlimit="10" cx="875.3" cy="471.1" r="50.3"/>
						<path id="XMLID_223_" fill="#5C4646" stroke="#333333" stroke-miterlimit="10" d="M904.9,484.3c-0.6-0.6-1.4-0.9-2.1-0.9
							c-0.8,0-1.5,0.3-2.1,0.9l-22.4,22.1V472c0-1.7-1.4-3-3-3c-1.7,0-3,1.4-3,3v34.4L850,484.5c-0.6-0.6-1.4-0.9-2.1-0.9
							c-0.8,0-1.5,0.3-2.1,0.9c-1.2,1.2-1.2,3.2,0,4.2l25.7,25.2c-0.1,0.9,0.9,2.9,0.9,2.9v44.7c0,1.7,1.4,3,3,3c1.7,0,3-1.4,3-3
							v-44.7c0,0,1.2-2,0.9-2.9l25.7-25.2C906.1,487.5,906.1,485.5,904.9,484.3z"/>
					</g>
				</g>
				<g id="XMLID_205_">
					<g id="XMLID_208_">
						<circle id="XMLID_210_" fill="#A1BB60" stroke="#333333" stroke-miterlimit="10" cx="865.4" cy="433.8" r="35"/>
						<circle id="XMLID_209_" fill="#A1BB60" stroke="#333333" stroke-miterlimit="10" cx="763.2" cy="433.8" r="35"/>
					</g>
					<circle id="XMLID_207_" fill="#CCE298" stroke="#333333" stroke-miterlimit="10" cx="814.2" cy="394" r="44.9"/>
					<path id="XMLID_206_" fill="#644C4C" stroke="#333333" stroke-miterlimit="10" d="M867.7,436.2c-1.1-1.1-2.4-1.7-3.9-1.7
						c-1.5,0-2.9,0.6-3.8,1.5l-40.4,39.6v-62.1c0-3-2.4-5.4-5.4-5.4s-5.4,2.4-5.4,5.4v62.1L768.5,436c-1.1-1.1-2.4-1.5-3.8-1.5
						c-1.5,0-2.9,0.6-3.9,1.7c-2.1,2.1-2.1,5.6,0,7.7l46.2,45.5c-0.3,1.7,1.7,5.1,1.7,5.1V575c0,3,2.4,5.4,5.4,5.4s5.4-2.4,5.4-5.4
						v-80.6c0.1,0,2.1-3.5,1.7-5.1l46.2-45.5C869.8,441.7,869.8,438.3,867.7,436.2z"/>
				</g>
				<g id="XMLID_185_">
					<path id="XMLID_204_" fill="#644C4C" stroke="#333333" stroke-miterlimit="10" d="M702.3,594.6c0,2.9-2.3,5.1-5.1,5.1l0,0
						c-2.9,0-5.1-2.3-5.1-5.1v-89c0-2.9,2.3-5.1,5.1-5.1l0,0c2.9,0,5.1,2.3,5.1,5.1V594.6z"/>
					<g id="XMLID_194_">
						<g id="XMLID_201_">
							<path id="XMLID_203_" fill="#A1BB60" d="M712.2,524.4c-8.3,0-21.8,0-30,0h-36.9c-8.3,0-11.4-5.7-6.9-12.6l17.3-26.6
								c4.5-6.9,11.9-18.3,16.4-25.2l17.3-26.6c4.5-6.9,11.9-6.9,16.4,0l17.3,26.6c4.5,6.9,11.9,18.3,16.4,25.2l17.3,26.6
								c4.5,6.9,1.4,12.6-6.9,12.6H712.2z"/>
							<path id="XMLID_202_" fill="none" stroke="#333333" stroke-miterlimit="10" d="M712.2,524.4c-8.3,0-21.8,0-30,0h-36.9
								c-8.3,0-11.4-5.7-6.9-12.6l17.3-26.6c4.5-6.9,11.9-18.3,16.4-25.2l17.3-26.6c4.5-6.9,11.9-6.9,16.4,0l17.3,26.6
								c4.5,6.9,11.9,18.3,16.4,25.2l17.3,26.6c4.5,6.9,1.4,12.6-6.9,12.6H712.2z"/>
						</g>
						<g id="XMLID_198_">
							<path id="XMLID_200_" fill="#A9C965" d="M712.2,481c-8.3,0-21.8,0-30,0h-26.6c-8.3,0-11.4-5.7-6.9-12.6l12-18.6
								c4.5-6.9,11.9-18.3,16.4-25.2l12-18.6c4.5-6.9,11.9-6.9,16.4,0l12,18.6c4.5,6.9,11.9,18.3,16.4,25.2l12,18.6
								c4.5,6.9,1.4,12.6-6.9,12.6H712.2z"/>
							<path id="XMLID_199_" fill="none" stroke="#333333" stroke-miterlimit="10" d="M712.2,481c-8.3,0-21.8,0-30,0h-26.6
								c-8.3,0-11.4-5.7-6.9-12.6l12-18.6c4.5-6.9,11.9-18.3,16.4-25.2l12-18.6c4.5-6.9,11.9-6.9,16.4,0l12,18.6
								c4.5,6.9,11.9,18.3,16.4,25.2l12,18.6c4.5,6.9,1.4,12.6-6.9,12.6H712.2z"/>
						</g>
						<g id="XMLID_195_">
							<path id="XMLID_197_" fill="#B5D674" d="M712.2,443.8c-8.3,0-21.8,0-30,0h-24.3c-8.3,0-11.4-5.7-6.9-12.6l10.8-16.8
								c4.5-6.9,11.9-18.3,16.4-25.2l10.8-16.8c4.5-6.9,11.9-6.9,16.4,0l10.8,16.8c4.5,6.9,11.9,18.3,16.4,25.2l10.8,16.8
								c4.5,6.9,1.4,12.6-6.9,12.6H712.2z"/>
							<path id="XMLID_196_" fill="none" stroke="#333333" stroke-miterlimit="10" d="M712.2,443.8c-8.3,0-21.8,0-30,0h-24.3
								c-8.3,0-11.4-5.7-6.9-12.6l10.8-16.8c4.5-6.9,11.9-18.3,16.4-25.2l10.8-16.8c4.5-6.9,11.9-6.9,16.4,0l10.8,16.8
								c4.5,6.9,11.9,18.3,16.4,25.2l10.8,16.8c4.5,6.9,1.4,12.6-6.9,12.6H712.2z"/>
						</g>
					</g>
				</g>
				<g id="XMLID_146_">
					<g id="XMLID_147_">
						<g id="XMLID_154_">
							<path id="XMLID_156_" fill="#A1BB60" d="M73.8,540.3c-8.3,0-21.8,0-30,0H14.3c-8.3,0-11.4-5.7-6.9-12.6l13.5-20.9
								c4.5-6.9,11.9-18.3,16.4-25.2l13.5-20.9c4.5-6.9,11.9-6.9,16.4,0l13.5,20.9c4.5,6.9,11.9,18.3,16.4,25.2l13.5,20.9
								c4.5,6.9,1.4,12.6-6.9,12.6H73.8z"/>
							<path id="XMLID_155_" fill="none" stroke="#333333" stroke-miterlimit="10" d="M73.8,540.3c-8.3,0-21.8,0-30,0H14.3
								c-8.3,0-11.4-5.7-6.9-12.6l13.5-20.9c4.5-6.9,11.9-18.3,16.4-25.2l13.5-20.9c4.5-6.9,11.9-6.9,16.4,0l13.5,20.9
								c4.5,6.9,11.9,18.3,16.4,25.2l13.5,20.9c4.5,6.9,1.4,12.6-6.9,12.6H73.8z"/>
						</g>
						<g id="XMLID_151_">
							<path id="XMLID_153_" fill="#A9C965" d="M73.8,501.7c-8.3,0-21.8,0-30,0H23.6c-8.3,0-11.4-5.7-6.9-12.6l8.9-13.7
								c4.5-6.9,11.9-18.3,16.4-25.2l8.9-13.7c4.5-6.9,11.9-6.9,16.4,0l8.9,13.7c4.5,6.9,11.9,18.3,16.4,25.2l8.9,13.7
								c4.5,6.9,1.4,12.6-6.9,12.6H73.8z"/>
							<path id="XMLID_152_" fill="none" stroke="#333333" stroke-miterlimit="10" d="M73.8,501.7c-8.3,0-21.8,0-30,0H23.6
								c-8.3,0-11.4-5.7-6.9-12.6l8.9-13.7c4.5-6.9,11.9-18.3,16.4-25.2l8.9-13.7c4.5-6.9,11.9-6.9,16.4,0l8.9,13.7
								c4.5,6.9,11.9,18.3,16.4,25.2l8.9,13.7c4.5,6.9,1.4,12.6-6.9,12.6H73.8z"/>
						</g>
						<g id="XMLID_148_">
							<path id="XMLID_150_" fill="#B5D674" d="M73.8,468.9c-8.3,0-21.8,0-30,0H25.5c-8.3,0-11.4-5.7-6.9-12.6l7.8-12.2
								c4.5-6.9,11.9-18.3,16.4-25.2l7.8-12.2c4.5-6.9,11.9-6.9,16.4,0l7.8,12.2c4.5,6.9,11.9,18.3,16.4,25.2l7.8,12.2
								c4.5,6.9,1.4,12.6-6.9,12.6H73.8z"/>
							<path id="XMLID_149_" fill="none" stroke="#333333" stroke-miterlimit="10" d="M73.8,468.9c-8.3,0-21.8,0-30,0H25.5
								c-8.3,0-11.4-5.7-6.9-12.6l7.8-12.2c4.5-6.9,11.9-18.3,16.4-25.2l7.8-12.2c4.5-6.9,11.9-6.9,16.4,0l7.8,12.2
								c4.5,6.9,11.9,18.3,16.4,25.2l7.8,12.2c4.5,6.9,1.4,12.6-6.9,12.6H73.8z"/>
						</g>
					</g>
					<g id="XMLID_265_">
						<path id="XMLID_266_" fill="#644C4C" stroke="#333333" stroke-miterlimit="10" d="M63.3,523.8c0-2.4-2-4.5-4.5-4.5
							c-2.4,0-4.5,2-4.5,4.5v52.1h9V523.8z"/>
					</g>
				</g>
			</g>
			<g id="XMLID_107_">
				<g id="XMLID_108_">
					<polygon id="XMLID_127_" fill="#BC3534" stroke="#333333" stroke-miterlimit="10" points="406,500 325.9,500.4 316.7,555 
						415.6,554.7 					"/>
					<polygon id="XMLID_126_" fill="#BC3534" stroke="#333333" stroke-miterlimit="10" points="325.9,500.4 290.1,555.2 316.7,555 
											"/>
					<polygon id="XMLID_125_" fill="#D0D2D3" stroke="#333333" stroke-miterlimit="10" points="325.9,500.4 312.2,555.1 316.7,555 
											"/>
					<path id="XMLID_124_" fill="#FFFFFF" stroke="#333333" stroke-miterlimit="10" d="M316.7,555c0,0,0-0.9,0.2-2.4
						s0.4-3.6,0.7-6.3c0.3-2.5,0.7-5.5,1.2-8.8c0.2-1.6,0.5-3.3,0.7-4.9c0.3-1.6,0.5-3.4,0.8-5.1c0.3-1.6,0.7-3.4,0.8-5.1
						c0.3-1.6,0.7-3.3,0.8-4.9c0.7-3.1,1.2-6.1,1.7-8.7c0.5-2.5,1-4.6,1.3-6.1c0.3-1.5,0.5-2.4,0.5-2.4s0,0.9-0.2,2.4
						s-0.4,3.6-0.7,6.3c-0.3,2.5-0.7,5.5-1.2,8.8c-0.2,1.6-0.5,3.3-0.7,4.9c-0.3,1.6-0.5,3.4-0.8,5.1c-0.3,1.6-0.7,3.4-0.8,5.1
						c-0.3,1.6-0.7,3.3-0.8,4.9c-0.7,3.1-1.2,6.1-1.7,8.7c-0.5,2.5-1,4.6-1.3,6.1C317,554.3,316.7,555,316.7,555z"/>
					
						<rect id="XMLID_123_" x="315.1" y="552.4" transform="matrix(-1 4.458608e-03 -4.458608e-03 -1 635.7389 1108.1119)" fill="#6E2020" stroke="#333333" stroke-miterlimit="10" width="3.2" height="4.8"/>
					
						<rect id="XMLID_122_" x="317.2" y="540.8" transform="matrix(-1 4.458608e-03 -4.458608e-03 -1 640.0183 1083.2715)" fill="#6E2020" stroke="#333333" stroke-miterlimit="10" width="3.2" height="3"/>
					<polygon id="XMLID_121_" fill="#BC3534" stroke="#333333" stroke-miterlimit="10" points="405.9,500 442.1,554.5 415.6,554.7 
											"/>
					<polygon id="XMLID_120_" fill="#D0D2D3" stroke="#333333" stroke-miterlimit="10" points="405.9,500 420.1,554.6 415.6,554.7 
											"/>
					<path id="XMLID_119_" fill="#FFFFFF" stroke="#333333" stroke-miterlimit="10" d="M415.6,554.7c0,0-0.1-0.9-0.3-2.4
						c-0.3-1.5-0.4-3.6-0.8-6.2c-0.4-2.6-0.8-5.6-1.3-8.7c-0.3-1.7-0.5-3.3-0.8-5c-0.3-1.7-0.5-3.5-0.8-5.1c-0.3-1.7-0.7-3.5-1-5.1
						s-0.7-3.3-1-5c-0.5-3.2-1.2-6.2-1.8-8.7c-0.6-2.6-1-4.7-1.4-6.2c-0.3-1.5-0.6-2.3-0.6-2.3s0.1,0.9,0.3,2.4
						c0.3,1.5,0.4,3.6,0.8,6.2s0.8,5.6,1.3,8.7c0.3,1.7,0.5,3.3,0.8,5s0.5,3.5,0.8,5.1c0.3,1.7,0.7,3.5,1,5.1c0.3,1.7,0.7,3.3,1,5
						c0.5,3.2,1.2,6.2,1.8,8.7c0.6,2.6,1,4.7,1.4,6.2C415.3,553.8,415.6,554.7,415.6,554.7z"/>
					
						<rect id="XMLID_118_" x="414.2" y="551.9" transform="matrix(1 -4.458608e-03 4.458608e-03 1 -2.4675 1.8591)" fill="#6E2020" stroke="#333333" stroke-miterlimit="10" width="3.2" height="4.8"/>
					
						<rect id="XMLID_117_" x="411.8" y="540.4" transform="matrix(1 -4.458608e-03 4.458608e-03 1 -2.4119 1.8485)" fill="#6E2020" stroke="#333333" stroke-miterlimit="10" width="3.2" height="3"/>
					<polygon id="XMLID_116_" fill="#D0D2D3" stroke="#333333" stroke-miterlimit="10" points="329.4,505.8 402.5,505.5 
						365.9,495.3 					"/>
					<path id="XMLID_115_" fill="#8E2A29" stroke="#333333" stroke-miterlimit="10" d="M410.7,507.2c-1.6-17.7-44.8-18.9-44.8-18.9
						l0,0l0,0l0,0l0,0c0,0-43.1,1.5-44.6,19.3c0,0,17.2-4.7,44.8-4.8C393.5,502.5,410.7,507.2,410.7,507.2z"/>
					<polygon id="XMLID_114_" fill="#B4B43B" stroke="#333333" stroke-miterlimit="10" points="365.8,517.2 346.9,555 385.1,554.7 
											"/>
					<polygon id="XMLID_113_" fill="#FFFFFF" stroke="#333333" stroke-miterlimit="10" points="365.8,517.2 335.3,555.1 346.9,555 
											"/>
					<polygon id="XMLID_112_" fill="#FFFFFF" stroke="#333333" stroke-miterlimit="10" points="365.8,517.2 396.7,554.8 
						385.1,554.7 					"/>
					<polygon id="XMLID_111_" fill="#8E2A29" stroke="#333333" stroke-miterlimit="10" points="365.8,517.2 346.9,555 385.1,554.7 
											"/>
					<polygon id="XMLID_110_" fill="#D0D2D3" stroke="#333333" stroke-miterlimit="10" points="365.8,517.2 331.1,555 335.3,555.1 
											"/>
					<polygon id="XMLID_109_" fill="#D0D2D3" stroke="#333333" stroke-miterlimit="10" points="365.8,517.2 400.9,554.7 
						396.7,554.8 					"/>
				</g>
			</g>
			<g id="XMLID_105_">
				<path id="XMLID_106_" fill="#93B241" stroke="#333333" stroke-miterlimit="10" d="M302.6,546.5L302.6,546.5
					c0-4.7-3.8-8.4-8.3-8.4c-0.2,0-0.3,0-0.5,0l0,0c0-4.7-3.8-8.3-8.3-8.3c-4.7,0-8.3,3.8-8.3,8.3l0,0c-0.2,0-0.3,0-0.5,0
					c-4.7,0-8.3,3.8-8.3,8.3v0.2c-2.6,0.6-4.5,2.9-4.5,5.7c0,3.2,2.6,5.9,5.9,5.9h31.5c3.2,0,5.9-2.6,5.9-5.9
					C307.1,549.5,305.1,547.1,302.6,546.5z"/>
			</g>
			<g id="XMLID_103_">
				<path id="XMLID_104_" fill="#93B241" stroke="#333333" stroke-miterlimit="10" d="M463.1,546.5L463.1,546.5
					c0-4.7-3.8-8.4-8.3-8.4c-0.2,0-0.3,0-0.5,0l0,0c0-4.7-3.8-8.3-8.3-8.3c-4.7,0-8.3,3.8-8.3,8.3l0,0c-0.2,0-0.3,0-0.5,0
					c-4.7,0-8.3,3.8-8.3,8.3v0.2c-2.6,0.6-4.5,2.9-4.5,5.7c0,3.2,2.6,5.9,5.9,5.9H462c3.2,0,5.9-2.6,5.9-5.9
					C467.6,549.5,465.6,547.1,463.1,546.5z"/>
			</g>
			<g id="XMLID_100_">
				<path id="XMLID_102_" fill="#5C4646" d="M188.2,560.5c2.4,0,3.3-1.6,2.2-3.6l-5.3-9.3c-1.2-2-3.1-5.3-4.2-7.3l-5.3-9.3
					c-1.2-2-3-2-4.2,0l-2.9,4.9c-1.2,2-2.9,2.5-3.7,1s-2.4-4.4-3.7-6.4l-11-19.3c-1.2-2-3-2-4.2,0l-11.1,19.2c-1.2,2-3,5.4-4.2,7.4
					l-11.7,19c-1.2,2-0.2,3.7,2.2,3.7l22.2,0c2.4,0,6.2,0.1,8.6,0.1l22.2,0c2.4,0,4.2,0,4.2,0s1.8,0,4.2,0L188.2,560.5z"/>
				<path id="XMLID_101_" fill="none" stroke="#333333" stroke-miterlimit="10" d="M188.2,560.5c2.4,0,3.3-1.6,2.2-3.6l-5.3-9.3
					c-1.2-2-3.1-5.3-4.2-7.3l-5.3-9.3c-1.2-2-3-2-4.2,0l-2.9,4.9c-1.2,2-2.9,2.5-3.7,1s-2.4-4.4-3.7-6.4l-11-19.3c-1.2-2-3-2-4.2,0
					l-11.1,19.2c-1.2,2-3,5.4-4.2,7.4l-11.7,19c-1.2,2-0.2,3.7,2.2,3.7l22.2,0c2.4,0,6.2,0.1,8.6,0.1l22.2,0c2.4,0,4.2,0,4.2,0
					s1.8,0,4.2,0L188.2,560.5z"/>
			</g>
			<g id="XMLID_97_">
				<path id="XMLID_99_" fill="#5C4646" d="M501.8,515.1c1.2-2.1,3.2-2.1,4.2,0l8.1,14.1c1.2,2.1,3.2,5.4,4.2,7.4l8.1,14.1
					c1.2,2.1,0.2,3.8-2.1,3.8h-16.2c-2.4,0-6.2,0-8.6,0h-16.2c-2.4,0-3.3-1.7-2.1-3.8l8.1-14.1c1.2-2.1,3.2-5.4,4.2-7.4L501.8,515.1
					z"/>
				<path id="XMLID_98_" fill="none" stroke="#333333" stroke-miterlimit="10" d="M501.8,515.1c1.2-2.1,3.2-2.1,4.2,0l8.1,14.1
					c1.2,2.1,3.2,5.4,4.2,7.4l8.1,14.1c1.2,2.1,0.2,3.8-2.1,3.8h-16.2c-2.4,0-6.2,0-8.6,0h-16.2c-2.4,0-3.3-1.7-2.1-3.8l8.1-14.1
					c1.2-2.1,3.2-5.4,4.2-7.4L501.8,515.1z"/>
			</g>
			<g id="XMLID_34_">
				<g id="XMLID_164_">
					<g id="XMLID_184_">
						<g id="XMLID_190_">
							<path id="XMLID_193_" fill="#967156" stroke="#373636" stroke-miterlimit="10" d="M255.9,563.9c-0.8,0.3-41.8-9.9-54.9-13.2
								c-3-0.7-5.3-3-6.2-6.1c0-0.1,0-0.1-0.1-0.3c-1.7-6.1,3.4-11.6,9.4-10.2l51.2,12.4c3.6,0.9,6.3,4.1,6.6,7.9
								C262.1,557.8,261.1,561.7,255.9,563.9z"/>
							<path id="XMLID_192_" fill="#A2795E" d="M198.4,544.5c0.1,0.3,0.4,0.5,0.7,0.6c5.8,2.8,12.2,3.9,18.3,5.4
								c11.1,3.1,21.8,8.1,33.1,10.3c-4-1.6-8-3.3-11.8-5.1c4.7,0,9.1,0.3,13.8,1.1c-5.2-2.6-10.2-5-15.3-7.6c1.5,0.7,3,0.4,4.5,0.6
								c1.2,0.2,2.2,0.7,3.4,1.2c3,1.3,6.2,2.2,9.4,2.6c0.5-1.5,1-3,1.4-4.5c0-0.3,0.2-0.6,0-0.9c-0.1-0.3-0.4-0.5-0.7-0.6
								c-1.5-0.7-3.1-0.9-4.6-1.1c-8.2-1-16.4-1.9-24.5-3.7c-8-1.8-16.1-4.3-24.3-6c2.2,1.9,4.7,3.3,7.4,4.2
								c-3.4-0.1-6.7-0.4-10.2-1.3c2.6,1.6,5.4,3.2,8.4,4c3.4,1,7.2,1.2,10.4,3.1c-5.5-0.5-11.2-1-16.4-3.4
								c-0.6-0.3-1.2-0.6-1.8-0.5C198.5,543.3,198.1,544,198.4,544.5z"/>
							<path id="XMLID_191_" fill="#A2795E" d="M259.4,551.1c-0.6-0.3-1.3-0.3-2,0.1c-0.6,0.4-0.9,1-1.1,1.6c-0.3,1-0.5,2.1-0.1,3.1
								c0.5-0.6,1.1-1.2,1.6-1.6c0.3,1.1,0.4,2.1,0.6,3.2c0.6-0.1,1.1-0.6,1.4-1.2c0.3-0.6,0.3-1.2,0.5-1.9c0-0.6,0.2-1.2,0.1-1.8
								C260.2,552.1,259.8,551.5,259.4,551.1z"/>
						</g>
						<g id="XMLID_186_">
							<path id="XMLID_189_" fill="#967156" stroke="#373636" stroke-miterlimit="10" d="M200.3,565c0.7,0.3,41.8-9.8,54.9-13.1
								c2.9-0.8,5.4-3,6.2-6.1c0-0.1,0-0.1,0.2-0.3c1.7-6.1-3.5-11.7-9.4-10.2l-51.2,12.5c-3.6,0.9-6.3,4.1-6.6,7.9
								C194.3,558.9,195.3,562.7,200.3,565z"/>
							<path id="XMLID_188_" fill="#A2795E" d="M257.9,545.7c-0.2,0.3-0.5,0.4-0.8,0.6c-5.8,2.8-12.1,3.8-18.2,5.5
								c-11.1,3.1-21.9,8.1-33.1,10.3c4-1.5,7.9-3.2,11.9-5c-4.7,0-9.2,0.4-13.7,1c5-2.5,10.2-5,15.3-7.6c-1.4,0.7-3,0.3-4.5,0.6
								c-1.2,0.3-2.3,0.7-3.3,1.2c-3,1.2-6.2,2.2-9.4,2.7c-0.5-1.5-0.9-3-1.3-4.5c-0.1-0.3-0.1-0.6,0-0.9c0.2-0.3,0.5-0.4,0.8-0.6
								c1.5-0.5,3-0.8,4.7-1c8.1-1.1,16.4-2,24.6-3.8c8.2-1.8,16.1-4.2,24.2-5.9c-2.2,1.9-4.6,3.3-7.3,4.1c3.5,0,6.8-0.5,10.1-1.1
								c-2.6,1.6-5.4,3.1-8.4,4.1c-3.5,0.9-7.2,1.1-10.3,2.9c5.6-0.4,11.3-1,16.3-3.5c0.6-0.3,1.2-0.6,1.8-0.5
								C257.8,544.3,258.4,545.1,257.9,545.7z"/>
							<path id="XMLID_187_" fill="#A2795E" d="M197,552.3c0.6-0.4,1.4-0.3,1.9,0.1s0.9,0.9,1.1,1.5c0.4,0.9,0.5,2.1,0.2,3.2
								c-0.6-0.6-1-1.1-1.6-1.7c-0.2,1-0.4,2.1-0.6,3.1c-0.6,0-1.2-0.6-1.5-1.1c-0.3-0.6-0.4-1.2-0.5-1.8c-0.1-0.6-0.1-1.2-0.1-1.8
								C196.3,553.1,196.6,552.5,197,552.3z"/>
						</g>
					</g>
					<g id="XMLID_165_">
						<rect id="XMLID_183_" x="196" y="546.1" fill="#BABABA" width="64.5" height="2.6"/>
						<rect id="XMLID_182_" x="203.6" y="503" fill="#BABABA" width="49.1" height="31.2"/>
						<polygon id="XMLID_181_" fill="#BABABA" points="196.5,545 203.3,535.4 253,535.3 259.9,545 						"/>
						<rect id="XMLID_180_" x="206.7" y="505.7" fill="#EDEDED" width="42.9" height="25.7"/>
						<g id="XMLID_166_">
							<path id="XMLID_177_" fill="#373636" d="M207.6,532.2l41-0.1c1,0,1.8-0.8,1.9-1.9l0.1-23.6c0-1-0.8-1.8-1.9-1.9l-41,0.1
								c-1,0-1.8,0.8-1.9,1.9l-0.1,23.6C205.9,531.4,206.6,532.2,207.6,532.2z M207,507c0-0.4,0.5-0.9,0.9-0.9l40.5,0.1
								c0.4,0,0.9,0.5,0.9,0.9l-0.1,23.1c0,0.4-0.5,0.9-0.9,0.9l-40.5-0.1c-0.4,0-0.9-0.5-0.9-0.9L207,507z"/>
							<path id="XMLID_172_" fill="#373636" d="M261.5,545.5c0-0.1,0-0.3-0.1-0.3l-7.6-10.6l0-30.9c0-1-0.8-1.8-1.9-1.9l-47.7,0
								c-1,0-1.8,0.8-1.9,1.9l0,30.9l-7.6,10.7c0,0.1-0.2,0.1-0.2,0.3l0,0l0,3.6c0,0.1,0,0.3,0.1,0.5s0.3,0.2,0.4,0.2l65.6,0
								c0.3,0,0.6-0.3,0.6-0.6L261.5,545.5L261.5,545.5z M228.2,544.9l-31.7-0.1l4.9-6.7l8.1,0c0.3,0,0.6-0.3,0.6-0.6
								c0-0.3-0.3-0.6-0.6-0.6l-7.4,0l1.3-1.8l24.8,0l24.8,0l4.4,6.2l-23.1-0.1c-0.3,0-0.6,0.3-0.6,0.6c0,0.3,0.3,0.6,0.6,0.6
								l24-0.1l1.7,2.3L228.2,544.9z M252.8,503.9l0,30.3l-24.5,0l-24.5,0l0-30.3c0-0.4,0.5-0.9,0.9-0.9H252
								C252.3,503,252.8,503.3,252.8,503.9z M196,548.3l-0.1-2.3l32.3-0.1l32.3-0.1l0.1,2.3c0,0.1-0.2,0.3-0.2,0.3l-64.1,0
								C196,548.6,196,548.5,196,548.3z"/>
							<path id="XMLID_171_" fill="#373636" d="M229.8,541.6l-8.1,0c-0.3,0-0.6,0.3-0.6,0.6c0,0.3,0.3,0.6,0.6,0.6l8.1,0
								c0.3,0,0.6-0.3,0.6-0.6C230.4,541.7,230.1,541.6,229.8,541.6z"/>
							<g id="XMLID_167_">
								<path id="XMLID_170_" fill="#373636" d="M216.7,517.4l-6.3-0.1c-0.1,0-0.3,0.1-0.5,0.1c-0.2,0.1-0.2,0.3-0.2,0.4
									c0,0.3,0.3,0.6,0.6,0.6l6.3,0.1c0.3,0,0.6-0.3,0.6-0.6C217.3,517.5,217,517.4,216.7,517.4z"/>
								<path id="XMLID_169_" fill="#373636" d="M225.1,513.2l-14.6-0.1c-0.1,0-0.3,0.1-0.5,0.1c-0.2,0.1-0.2,0.3-0.2,0.4
									c0,0.3,0.3,0.6,0.6,0.6l14.6,0.1c0.3,0,0.6-0.3,0.6-0.6C225.7,513.3,225.4,513.2,225.1,513.2z"/>
								<path id="XMLID_168_" fill="#373636" d="M233.4,509l-23-0.1c-0.1,0-0.3,0.1-0.5,0.1c-0.2,0.1-0.2,0.3-0.2,0.4
									c0,0.3,0.3,0.6,0.6,0.6l23,0.1c0.3,0,0.6-0.3,0.6-0.6C234,509.3,233.8,509,233.4,509z"/>
							</g>
						</g>
					</g>
				</g>
			</g>
			<g id="XMLID_64_">
				<path id="XMLID_66_" fill="#FFFFFF" d="M556.1,343.7c4.5-6.9,11.7-6.9,15.9,0.1l31.7,51.9c4.4,7.1,2.4,8.7-4.1,3.6l-3.9-3
					c-6.6-5.1-13.1-5.4-14.6-0.8c-1.5,4.7-7.1,5-12.6,0.6c-5.6-4.2-16.2-5.3-23.9-2.1l-15,6.2c-7.7,3.2-10.2,0-5.7-6.9L556.1,343.7z
					"/>
				<path id="XMLID_65_" fill="none" stroke="#333333" stroke-miterlimit="10" d="M556.1,343.7c4.5-6.9,11.7-6.9,15.9,0.1l31.7,51.9
					c4.4,7.1,2.4,8.7-4.1,3.6l-3.9-3c-6.6-5.1-13.1-5.4-14.6-0.8c-1.5,4.7-7.1,5-12.6,0.6c-5.6-4.2-16.2-5.3-23.9-2.1l-15,6.2
					c-7.7,3.2-10.2,0-5.7-6.9L556.1,343.7z"/>
			</g>
		</g>
	</g>
	<g id="XMLID_52_">
		<path id="XMLID_61_" fill="#BA8969" stroke="#333333" stroke-miterlimit="10" d="M114.5,552.6H11.3c-6.2,0-11.3,5.1-11.3,11.3l0,0
			c0,6.2,5.1,11.3,11.3,11.3h103.2c6.2,0,11.3-5.1,11.3-11.3l0,0C125.7,557.7,120.6,552.6,114.5,552.6z"/>
		<circle id="XMLID_60_" fill="#977156" stroke="#333333" stroke-miterlimit="10" cx="114.5" cy="563.9" r="11.3"/>
		<circle id="XMLID_59_" fill="#63574D" stroke="#333333" stroke-miterlimit="10" cx="114.5" cy="563.9" r="7.7"/>
		<line id="XMLID_58_" fill="none" stroke="#333333" stroke-miterlimit="10" x1="96.2" y1="558.9" x2="84.2" y2="558.9"/>
		<line id="XMLID_57_" fill="none" stroke="#333333" stroke-miterlimit="10" x1="73.5" y1="562.8" x2="61.4" y2="562.8"/>
		<line id="XMLID_56_" fill="none" stroke="#333333" stroke-miterlimit="10" x1="43.8" y1="558.9" x2="28.7" y2="558.9"/>
		<line id="XMLID_55_" fill="none" stroke="#333333" stroke-miterlimit="10" x1="48.3" y1="569.4" x2="30.2" y2="569.4"/>
		<line id="XMLID_54_" fill="none" stroke="#333333" stroke-miterlimit="10" x1="10.8" y1="544.8" x2="24.5" y2="558.6"/>
		<line id="XMLID_53_" fill="none" stroke="#333333" stroke-miterlimit="10" x1="91.7" y1="544.8" x2="77.9" y2="558.6"/>
	</g>
	<g id="XMLID_33_">
		<path id="XMLID_41_" fill="#6296CF" stroke="#333333" stroke-width="0.5" stroke-miterlimit="10" d="M413.4,542.5
			c-2.7-0.8-19.1-2.3-19.1-2.3c-2.9,0-5.3,1.4-6.8,3.3c-0.8,1.1-1.2,2.4-1.2,3.8c0,3.9,3.6,6.9,8,6.9h19.1c4.4,0,8-1.1,8-5.6
			C421.2,544.4,416.1,543.3,413.4,542.5z"/>
		<g id="XMLID_38_">
			<path id="XMLID_40_" fill="#FFFFFF" stroke="#333333" stroke-width="0.5" stroke-miterlimit="10" d="M416.3,548.1
				c0-1.7-0.6-3.2-1.5-4.5c-0.2-0.3-0.3-0.5-0.6-0.8c-0.3-0.2-0.6-0.2-0.9-0.3c-0.3-0.2-0.9-0.2-1.7-0.3c0.4,0.4,0.8,0.8,1.1,1.2
				c0.9,1.4,1.5,2.9,1.5,4.5c0,2.6-1.2,4.8-3.3,6.3h2C414.9,552.8,416.3,550.5,416.3,548.1z"/>
			<path id="XMLID_39_" fill="#FFFFFF" stroke="#333333" stroke-width="0.5" stroke-miterlimit="10" d="M407.7,546.9
				c0-1.7-0.6-3.2-1.5-4.5c-0.2-0.3-0.5-0.6-0.8-0.9c-0.8-0.2-1.4-0.2-2.1-0.2c0.3,0.3,0.6,0.8,0.9,1.1c0.9,1.4,1.5,2.9,1.5,4.5
				c0,3.3-2.1,6.2-5.1,7.5h2C405.6,552.9,407.7,550.1,407.7,546.9z"/>
		</g>
		<path id="XMLID_37_" fill="#D0D2D3" stroke="#333333" stroke-width="0.5" stroke-miterlimit="10" d="M402,543.6
			c-1.4-2-3.9-3.3-6.8-3.3h-19.1c-2.9,0-5.3,1.4-6.8,3.3c-0.8,1.1-1.2,2.4-1.2,3.8c0,3.9,3.6,6.9,8,6.9h19.1c4.4,0,8-3.2,8-6.9
			C403.2,546,402.8,544.7,402,543.6z"/>
		<path id="XMLID_36_" fill="#6296CF" stroke="#333333" stroke-width="0.5" stroke-miterlimit="10" d="M399.5,543.6
			c-1.4-2-3.9-3.3-6.8-3.3h-19.1c-2.9,0-5.3,1.4-6.8,3.3c-0.8,1.1-1.2,2.4-1.2,3.8c0,3.9,3.6,6.9,8,6.9h19.1c4.4,0,8-3.2,8-6.9
			C400.7,546,400.2,544.7,399.5,543.6z"/>
		<path id="XMLID_35_" fill="#A5A6A9" stroke="#333333" stroke-width="0.5" stroke-miterlimit="10" d="M375.8,547.1h15
			c2.3,0,4.2-1.1,5.3-2.6c-1.1-1.5-3-2.6-5.3-2.6h-15c-2.3,0-4.2,1.1-5.3,2.6C371.6,546,373.5,547.1,375.8,547.1z"/>
	</g>
	<g id="XMLID_22_">
		<g id="XMLID_30_">
			<path id="XMLID_32_" fill="#E8CE2E" stroke="#333333" stroke-width="0.5" stroke-miterlimit="10" d="M785.6,539.5
				c-0.5-0.9-1.5-1.2-2.4-0.8l-1.7,0.9l1.1-1.8c0.5-0.9,0.2-2-0.8-2.4s-2-0.2-2.4,0.8l-1.1,1.8v-2c0-1.1-0.8-1.8-1.8-1.8
				c-1.1,0-1.8,0.8-1.8,1.8v2l-0.9-1.8c-0.5-0.9-1.5-1.2-2.4-0.8s-1.2,1.5-0.8,2.4l0.9,1.7l-1.4-0.9c-0.9-0.6-2-0.3-2.4,0.6
				c-0.6,0.9-0.3,2,0.6,2.4l5.4,3.5c0.9,0.6,2,0.3,2.4-0.6c0-0.1,0.2-0.1,0.2-0.3h0.2h0.2l0,0c0.5,0.9,1.5,1.2,2.4,0.8l5.7-3.2
				C785.7,541.5,786,540.4,785.6,539.5z"/>
			<path id="XMLID_31_" fill="#9AAF4E" stroke="#333333" stroke-width="0.5" stroke-miterlimit="10" d="M781.5,548.3
				c-0.6-0.6-2.6,0.5-3,1.1l0,0c-0.5,0.5-0.5,1.2-0.2,1.7l-0.8,0.8v-4.8c0.8,0,1.5-0.5,1.8-1.2v-0.2c0.5-1.1,0.6-3.9-0.5-4.4
				c-0.6-0.3-1.5,0.3-2.3,1.2c-0.8-0.8-1.7-1.4-2.3-1.2c-1.1,0.5-0.9,3.3-0.4,4.4v0.2c0.3,0.8,1.1,1.2,1.8,1.2v4.8l-0.8-0.8
				c0.3-0.6,0.2-1.2-0.2-1.7l0,0c-0.6-0.6-2.4-1.7-3-1.1s0.3,2.6,0.8,3.2l0,0c0.5,0.5,1.2,0.6,1.8,0.3l1.5,1.5v4.1
				c0,0.5,0.3,0.8,0.8,0.8c0.5,0,0.8-0.3,0.8-0.8v-4.1l1.5-1.5c0.6,0.3,1.4,0.2,1.8-0.3l0,0C781.2,550.8,782.1,548.7,781.5,548.3z"
				/>
		</g>
		<g id="XMLID_23_">
			<g id="XMLID_27_">
				<path id="XMLID_29_" fill="#C93D66" stroke="#333333" stroke-width="0.5" stroke-miterlimit="10" d="M808.8,532.9
					c-0.4-0.9-1.5-1.2-2.4-0.8l-1.7,0.9l1.1-1.8c0.5-0.9,0.1-2-0.8-2.4c-0.9-0.5-2-0.2-2.4,0.8l-1.1,1.8v-2c0-1.1-0.8-1.8-1.8-1.8
					c-1.1,0-1.8,0.8-1.8,1.8v2l-0.9-1.8c-0.5-0.9-1.5-1.2-2.4-0.8c-0.9,0.5-1.2,1.5-0.8,2.4l0.9,1.7l-1.4-0.9
					c-0.9-0.6-2-0.3-2.4,0.6c-0.6,0.9-0.3,2,0.6,2.4l5.4,3.5c0.9,0.6,2,0.3,2.4-0.6c0-0.2,0.1-0.2,0.1-0.3h0.2h0.1l0,0
					c0.5,0.9,1.5,1.2,2.4,0.8l5.7-3.2C809,534.9,809.3,533.8,808.8,532.9z"/>
				<path id="XMLID_28_" fill="#9AAF4E" stroke="#333333" stroke-width="0.5" stroke-miterlimit="10" d="M804.6,541.6
					c-0.6-0.6-2.6,0.5-3,1.1l0,0c-0.5,0.5-0.5,1.2-0.1,1.7l-0.8,0.8v-4.8c0.8,0,1.5-0.5,1.8-1.2v-0.2c0.5-1.1,0.6-3.9-0.5-4.4
					c-0.6-0.3-1.5,0.3-2.3,1.2c-0.8-0.8-1.7-1.4-2.3-1.2c-1.1,0.5-0.9,3.3-0.5,4.4v0.2c0.3,0.8,1.1,1.2,1.8,1.2v4.8l-0.8-0.8
					c0.3-0.6,0.1-1.2-0.2-1.7l0,0c-0.6-0.6-2.4-1.7-3-1.1c-0.6,0.6,0.3,2.6,0.8,3.2l0,0c0.5,0.5,1.2,0.6,1.8,0.3l1.5,1.5v4.1
					c0,0.5,0.3,0.8,0.8,0.8s0.8-0.3,0.8-0.8v-4.1l1.5-1.5c0.6,0.3,1.4,0.2,1.8-0.3l0,0C804.5,544.2,805.4,542.2,804.6,541.6z"/>
			</g>
			<g id="XMLID_24_">
				<path id="XMLID_26_" fill="#E38A2A" stroke="#333333" stroke-width="0.5" stroke-miterlimit="10" d="M762.3,532.9
					c-0.5-0.9-1.5-1.2-2.4-0.8l-1.7,0.9l1.1-1.8c0.5-0.9,0.2-2-0.8-2.4c-0.9-0.5-2-0.2-2.4,0.8l-1.1,1.8v-2c0-1.1-0.8-1.8-1.8-1.8
					c-1.1,0-1.8,0.8-1.8,1.8v2l-0.9-1.8c-0.5-0.9-1.5-1.2-2.4-0.8c-0.9,0.5-1.2,1.5-0.8,2.4l0.9,1.7L747,532c-0.9-0.6-2-0.3-2.4,0.6
					c-0.6,0.9-0.3,2,0.6,2.4l5.4,3.5c0.9,0.6,2,0.3,2.4-0.6c0-0.2,0.2-0.2,0.2-0.3h0.2h0.2l0,0c0.5,0.9,1.5,1.2,2.4,0.8l5.7-3.2
					C762.5,534.9,762.8,533.8,762.3,532.9z"/>
				<path id="XMLID_25_" fill="#9AAF4E" stroke="#333333" stroke-width="0.5" stroke-miterlimit="10" d="M758.3,541.6
					c-0.6-0.6-2.6,0.5-3,1.1l0,0c-0.5,0.5-0.5,1.2-0.1,1.7l-0.8,0.8v-4.8c0.8,0,1.5-0.5,1.8-1.2v-0.2c0.5-1.1,0.6-3.9-0.5-4.4
					c-0.6-0.3-1.5,0.3-2.3,1.2c-0.8-0.8-1.7-1.4-2.3-1.2c-1.1,0.5-0.9,3.3-0.5,4.4v0.2c0.3,0.8,1.1,1.2,1.8,1.2v4.8l-0.8-0.8
					c0.3-0.6,0.2-1.2-0.2-1.7l0,0c-0.6-0.6-2.4-1.7-3-1.1c-0.6,0.6,0.3,2.6,0.8,3.2l0,0c0.5,0.5,1.2,0.6,1.8,0.3l1.5,1.5v4.1
					c0,0.5,0.3,0.8,0.8,0.8s0.8-0.3,0.8-0.8v-4.1l1.5-1.5c0.6,0.3,1.4,0.2,1.8-0.3l0,0C758,544.2,758.9,542.2,758.3,541.6z"/>
			</g>
		</g>
	</g>
	<g id="XMLID_2_">
		<path id="XMLID_10_" fill="#BA8969" stroke="#333333" stroke-miterlimit="10" d="M671,533.8H567.8c-6.2,0-11.3,5.1-11.3,11.3l0,0
			c0,6.2,5.1,11.3,11.3,11.3H671c6.2,0,11.3-5.1,11.3-11.3l0,0C682.2,538.9,677.1,533.8,671,533.8z"/>
		<circle id="XMLID_9_" fill="#977156" stroke="#333333" stroke-miterlimit="10" cx="671" cy="545.1" r="11.3"/>
		<circle id="XMLID_8_" fill="#63574D" stroke="#333333" stroke-miterlimit="10" cx="671" cy="545.1" r="7.7"/>
		<line id="XMLID_7_" fill="none" stroke="#333333" stroke-miterlimit="10" x1="652.7" y1="540.3" x2="640.5" y2="540.3"/>
		<line id="XMLID_6_" fill="none" stroke="#333333" stroke-miterlimit="10" x1="630" y1="544.1" x2="617.9" y2="544.1"/>
		<line id="XMLID_5_" fill="none" stroke="#333333" stroke-miterlimit="10" x1="600.3" y1="540.3" x2="585.2" y2="540.3"/>
		<line id="XMLID_4_" fill="none" stroke="#333333" stroke-miterlimit="10" x1="604.8" y1="550.8" x2="586.7" y2="550.8"/>
		<line id="XMLID_3_" fill="none" stroke="#333333" stroke-miterlimit="10" x1="578.1" y1="524.2" x2="570" y2="541.8"/>
	</g>
</g>
</svg>
